<svg width="122" height="122" viewBox="0 0 122 122" fill="none" xmlns="http://www.w3.org/2000/svg">
<g clip-path="url(#clip0)">
<mask id="mask0" mask-type="alpha" maskUnits="userSpaceOnUse" x="0" y="8" width="123" height="106">
<path d="M113.779 45.0694L117.179 41.8617C119.217 39.939 119.311 36.7167 117.388 34.6785L114.595 31.7181C112.672 29.6791 109.459 29.5776 107.412 31.5089L103.614 35.0919C98.987 31.8517 93.6955 29.4997 87.9877 28.2837V23.6422H88.7993C92.9173 23.6422 96.2675 20.292 96.2675 16.174C96.2675 12.056 92.9173 8.70581 88.7993 8.70581H69.2472C65.1292 8.70581 61.7789 12.056 61.7789 16.174C61.7789 20.292 65.1292 23.6422 69.2472 23.6422H70.0585V28.284C64.2216 29.5275 58.8188 31.9575 54.1177 35.3118L50.087 31.5089C48.0487 29.5864 44.8264 29.68 42.9037 31.7181L40.1108 34.6785C38.1836 36.721 38.277 39.9342 40.32 41.8617L44.0444 45.3752C41.0323 49.5873 38.761 54.3634 37.4228 59.5119H6.2301C2.7948 59.5121 0 62.3069 0 65.7422C0 69.1776 2.7948 71.9723 6.2301 71.9723H11.2061C12.1933 71.9723 12.9932 71.1722 12.9932 70.1852C12.9932 69.1983 12.1933 68.3981 11.2061 68.3981H6.2301C4.76562 68.3981 3.57422 67.2067 3.57422 65.7422C3.57422 64.2778 4.76562 63.0864 6.2301 63.0864H36.6579C36.3622 64.8242 36.1711 66.597 36.0915 68.3984H19.5789C18.5917 68.3984 17.7917 69.1985 17.7917 70.1855C17.7917 71.1724 18.5917 71.9726 19.5789 71.9726H36.0815C36.1392 73.4871 36.2752 74.9816 36.4863 76.4525H17.7703C14.335 76.4525 11.5402 79.2473 11.5402 82.6826C11.5402 86.1179 14.335 88.9127 17.7703 88.9127H40.2817C41.0273 90.4596 41.8632 91.9551 42.782 93.3926H27.5172C24.0819 93.3926 21.2871 96.1874 21.2871 99.6227C21.2871 103.058 24.0819 105.853 27.5172 105.853H54.8802C61.7663 110.546 70.0797 113.294 79.0236 113.294C102.721 113.294 122 94.0143 122 70.317C122 60.8894 118.946 52.1628 113.779 45.0694ZM109.865 34.1087C110.488 33.5209 111.439 33.5812 111.995 34.1709L114.788 37.1313C115.359 37.7359 115.331 38.6916 114.726 39.2618L111.55 42.2584C110.003 40.4675 108.31 38.8065 106.492 37.2912L109.865 34.1087ZM69.2472 20.068C67.1 20.068 65.3532 18.3212 65.3532 16.174C65.3532 14.0269 67.1 12.28 69.2472 12.28H88.7993C90.9465 12.28 92.6933 14.0269 92.6933 16.174C92.6933 18.3212 90.9465 20.068 88.7993 20.068H69.2472ZM84.4135 23.6422V27.678C82.6474 27.4559 80.8486 27.3408 79.0234 27.3408C77.1979 27.3408 75.3991 27.4562 73.633 27.678V23.6422H84.4135ZM42.7729 39.2618C42.167 38.6907 42.1391 37.7373 42.7107 37.1313L45.5036 34.1709C46.0738 33.5667 47.0298 33.5385 47.6343 34.109L51.2662 37.5352C49.4617 39.0655 47.7847 40.7415 46.2535 42.5456L42.7729 39.2618ZM17.7703 85.3387C16.3058 85.3387 15.1144 84.1473 15.1144 82.6829C15.1144 81.2184 16.3058 80.027 17.7703 80.027H37.1528C37.5741 81.8446 38.1131 83.6172 38.7576 85.339H17.7703V85.3387ZM27.517 102.279C26.0525 102.279 24.8611 101.088 24.8611 99.6232C24.8611 98.1587 26.0525 96.9673 27.517 96.9673H45.3313C46.8442 98.8757 48.5155 100.653 50.3252 102.279H27.517ZM79.0234 109.72C57.2966 109.72 39.6209 92.044 39.6209 70.3175C39.6209 48.591 57.2969 30.9151 79.0234 30.9151C100.75 30.9151 118.426 48.5908 118.426 70.3175C118.426 92.0442 100.75 109.72 79.0234 109.72Z" fill="black"/>
<path d="M98.4007 94.3955C92.8578 98.8624 86.1571 101.223 79.0235 101.223C61.9818 101.223 48.1177 87.3588 48.1177 70.3172C48.1177 63.2038 50.4662 56.5186 54.9096 50.9843C55.5275 50.2146 55.4046 49.0897 54.6349 48.4721C53.8653 47.854 52.7403 47.9772 52.1225 48.7468C47.2351 54.8344 44.5435 62.4949 44.5435 70.3175C44.5435 89.3299 60.011 104.798 79.0235 104.798C86.8686 104.798 94.5465 102.092 100.643 97.1789C101.412 96.5596 101.533 95.4344 100.914 94.666C100.294 93.8975 99.1699 93.776 98.4007 94.3955Z" fill="black"/>
<path d="M79.0233 35.8373C71.5761 35.8373 64.4858 38.1739 58.5185 42.594C57.7255 43.1813 57.5589 44.3006 58.1463 45.0938C58.7337 45.8873 59.8531 46.0536 60.6461 45.466C65.9929 41.505 72.3476 39.4115 79.0231 39.4115C96.0647 39.4115 109.929 53.2759 109.929 70.3175C109.929 76.9756 107.845 83.317 103.903 88.6557C103.317 89.4498 103.485 90.5686 104.279 91.155C104.599 91.3909 104.97 91.5045 105.339 91.5045C105.887 91.5045 106.428 91.2534 106.778 90.779C111.178 84.8208 113.503 77.7455 113.503 70.3175C113.503 51.3048 98.0358 35.8373 79.0233 35.8373Z" fill="black"/>
<path d="M59.4359 76.706C59.7614 77.6918 60.1626 78.6518 60.6351 79.5757C60.714 79.7298 60.7138 79.9138 60.6251 80.0627C59.749 81.537 59.9944 83.4732 61.2306 84.7013L64.4886 87.9367C65.717 89.1555 67.6463 89.4107 69.131 88.51C69.2793 88.4199 69.4637 88.4185 69.6188 88.4964C70.5443 88.9616 71.5055 89.3557 72.492 89.674C72.6555 89.7267 72.7865 89.8546 72.8289 90.021C73.2228 91.5653 74.627 92.8763 76.5128 92.8763H76.5263L81.1042 92.8603C82.8727 92.8541 84.3703 91.6317 84.7976 89.9824C84.8405 89.8165 84.9689 89.6874 85.1316 89.6337C86.1195 89.3078 87.0817 88.906 88.0074 88.4326C88.1619 88.3535 88.3463 88.3539 88.4952 88.4428C89.0669 88.784 89.724 88.9663 90.4115 88.9675H90.4169C91.4296 88.9675 92.4197 88.5555 93.1334 87.8364L96.3687 84.5784C97.5906 83.3474 97.8311 81.4095 96.9416 79.9362C96.852 79.788 96.8505 79.6038 96.9282 79.4491C97.3941 78.5225 97.7882 77.561 98.1068 76.5731C98.1599 76.4084 98.29 76.2788 98.4575 76.2357C100.089 75.8139 101.315 74.3275 101.308 72.5345L101.292 67.9371C101.286 66.1359 100.04 64.6669 98.416 64.2608C98.2478 64.2189 98.1165 64.0902 98.0622 63.9256C97.7367 62.9405 97.3362 61.9824 96.8641 61.0595C96.7853 60.9054 96.7855 60.7214 96.8739 60.5725C97.7515 59.0954 97.5022 57.1596 96.2687 55.9341L93.0109 52.699C91.773 51.4704 89.8444 51.23 88.3684 52.1252C88.22 52.2153 88.0356 52.2169 87.8807 52.139C86.9533 51.6729 85.9904 51.2783 85.0022 50.9598C84.8381 50.9069 84.7089 50.7777 84.6653 50.6109C84.2366 48.972 82.7414 47.7594 80.9736 47.7594C80.9691 47.7594 80.9648 47.7594 80.9603 47.7594L76.356 47.7756C74.5419 47.7818 73.0863 49.0452 72.6886 50.6514C72.6469 50.8201 72.5182 50.9524 72.3531 51.0069C71.3707 51.3319 70.4135 51.732 69.4925 52.2031C69.3379 52.2822 69.1534 52.2815 69.0045 52.1926C67.5324 51.3143 65.6031 51.5536 64.3659 52.7993L61.131 56.0571C59.911 57.2856 59.6668 59.2233 60.5582 60.6995C60.6478 60.8477 60.6492 61.0317 60.5713 61.1865C60.105 62.1142 59.7104 63.0773 59.3915 64.0657C59.3386 64.2296 59.2095 64.359 59.0427 64.4026C57.3997 64.8325 56.1852 66.3344 56.1912 68.1074L56.2069 72.6924C56.2131 74.4655 57.4364 75.9552 59.0842 76.372C59.2514 76.4137 59.3818 76.5421 59.4359 76.706ZM60.0113 67.8527C61.208 67.846 62.2633 67.0371 62.5778 65.8857C62.9357 64.5744 63.4545 63.3089 64.1193 62.1237C64.7016 61.0853 64.5251 59.7712 63.6925 58.931L63.6403 58.8793C63.5798 58.8207 63.5772 58.6653 63.667 58.575L66.9017 55.3174C67.0904 55.1278 67.2446 55.3296 67.3313 55.4099C68.1786 56.1931 69.4294 56.3299 70.4437 55.7506C71.6268 55.0749 72.8923 54.5454 74.205 54.1773C75.3981 53.8425 76.1861 52.7211 76.1537 51.5671C76.1522 51.4485 76.2461 51.3498 76.3679 51.3493L80.9722 51.3331H80.9731C81.1052 51.3331 81.2131 51.4401 81.2141 51.5614C81.2229 51.5852 81.1907 53.6023 83.1811 54.1453C84.4959 54.5044 85.765 55.0248 86.9528 55.6923C87.9641 56.2608 89.2718 56.1538 90.188 55.2074C90.2497 55.1437 90.3912 55.1344 90.4918 55.2345L93.7496 58.4694C93.8403 58.5595 93.8389 58.7139 93.7777 58.7744C92.977 59.565 92.4909 60.6435 93.0764 61.6043C93.8685 62.9043 94.4789 64.3071 94.89 65.773C95.2064 66.9012 96.242 67.7023 97.4041 67.7209L97.4882 67.7214C97.5942 67.7135 97.7174 67.81 97.7179 67.949L97.7338 72.5464C97.7343 72.6831 97.6219 72.7813 97.5056 72.7818C97.4818 72.7906 95.4647 72.758 94.9214 74.7481C94.5204 76.2171 93.9199 77.6239 93.1369 78.9297C92.5601 79.8909 92.7733 80.8962 93.8589 81.755C93.9252 81.8074 93.9214 81.9697 93.8325 82.0595L90.5971 85.3173C90.5323 85.3828 90.4563 85.3926 90.4167 85.3926H90.4165C90.3388 85.3926 90.3038 85.3571 90.2942 85.3475C90.2523 85.3049 90.2099 85.2639 90.1699 85.227C89.3225 84.4423 88.0706 84.3046 87.0543 84.8848C85.872 85.5601 84.6069 86.0893 83.2954 86.4575C82.165 86.7744 81.3635 87.8114 81.3458 88.9723C81.3456 88.9942 81.3453 89.0164 81.3453 89.0383C81.3411 89.1748 81.2286 89.2851 81.0913 89.2856L76.5137 89.3016C76.5132 89.3016 76.513 89.3016 76.5128 89.3016C76.4501 89.3016 76.3962 89.2792 76.3519 89.2351C76.3074 89.1908 76.285 89.1367 76.285 89.0731L76.284 88.994C76.2576 87.8273 75.4488 86.7972 74.3184 86.4889C73.0029 86.1298 71.7338 85.6094 70.5457 84.9415C69.5321 84.372 68.2818 84.5114 67.4357 85.3042C67.353 85.3816 67.1981 85.5894 67.007 85.3997L63.7492 82.1648C63.6711 82.0871 63.6463 81.9334 63.729 81.8522L63.7809 81.7995C64.6016 80.9524 64.7657 79.6445 64.1803 78.619C63.5057 77.4376 62.977 76.1732 62.609 74.8625C62.2928 73.7328 61.2563 72.9312 60.0945 72.9135C60.073 72.9131 60.0513 72.9128 60.0335 72.9128C60.0268 72.9128 60.017 72.9126 60.0158 72.9128C59.8867 72.9128 59.7816 72.8082 59.7811 72.6791L59.7654 68.0941C59.7647 67.9621 59.8722 67.8537 60.0113 67.8527Z" fill="black"/>
<path d="M78.9019 81.4269C85.0276 81.4269 90.0113 76.4433 90.0113 70.3175C90.0113 64.1918 85.0276 59.2081 78.9019 59.2081C72.7761 59.2081 67.7925 64.1918 67.7925 70.3175C67.7925 76.4433 72.7761 81.4269 78.9019 81.4269ZM78.9019 62.7821C83.0568 62.7821 86.437 66.1624 86.437 70.3173C86.437 74.4722 83.0565 77.8525 78.9019 77.8525C74.7472 77.8525 71.3667 74.4722 71.3667 70.3173C71.3667 66.1624 74.747 62.7821 78.9019 62.7821Z" fill="black"/>
</mask>
<g mask="url(#mask0)">
<rect x="-2" y="-14" width="150" height="150" fill="#B38A43"/>
</g>
</g>
<defs>
<clipPath id="clip0">
<rect width="122" height="122" fill="white"/>
</clipPath>
</defs>
</svg>
