<svg width="111" height="111" viewBox="0 0 111 111" fill="none" xmlns="http://www.w3.org/2000/svg">
<mask id="mask0" mask-type="alpha" maskUnits="userSpaceOnUse" x="0" y="0" width="111" height="111">
<g clip-path="url(#clip0)">
<path d="M48.0646 9.57699C48.9423 9.57699 49.6539 8.86542 49.6539 7.98765C49.6539 7.10989 48.9423 6.39832 48.0646 6.39832C47.1868 6.39832 46.4752 7.10989 46.4752 7.98765C46.4752 8.86542 47.1868 9.57699 48.0646 9.57699Z" fill="black"/>
<path d="M101.932 42.5403L100.659 41.6198C98.5383 40.0857 95.5786 40.5597 94.0434 42.6821L92.1933 45.2401C90.8199 45.2479 89.6559 45.9063 88.9288 46.9114L79.8135 59.5136V12.3474H81.5588C83.8815 12.3474 85.7713 14.2373 85.7713 16.56V42.9804C85.7713 43.8784 86.4993 44.6064 87.3973 44.6064C88.2953 44.6064 89.0233 43.8784 89.0233 42.9804V16.56C89.0233 12.4441 85.6746 9.0955 81.5588 9.0955C79.2683 9.0955 58.8007 9.0955 55.9949 9.0955V7.93043C55.9949 3.55764 52.4373 0 48.0645 0C43.6917 0 40.1341 3.55764 40.1341 7.93043V9.0955C37.3183 9.0955 16.4154 9.0955 14.5702 9.0955C10.4544 9.0955 7.10571 12.4441 7.10571 16.56V103.535C7.10571 107.651 10.4541 111 14.5702 111H81.5585C85.6744 111 89.0231 107.651 89.0231 103.535V79.7442C89.0231 78.8462 88.2951 78.1182 87.3971 78.1182C86.4991 78.1182 85.7711 78.8462 85.7711 79.7442V103.535C85.7711 105.858 83.8813 107.748 81.5585 107.748H59.6378L62.5853 106.033C64.1029 105.15 65.3939 103.981 66.4229 102.559L67.2844 101.368H75.1077C77.7026 101.368 79.8135 99.2565 79.8135 96.6617V84.0456L100.579 55.3376C101.307 54.331 101.566 53.0188 101.144 51.7141L102.994 49.1561C104.528 47.0343 104.054 44.075 101.932 42.5403ZM98.7533 44.2545L100.026 45.175C100.691 45.6561 100.84 46.5844 100.359 47.25L98.9658 49.1763L95.2852 46.514L96.6784 44.5877C97.1588 43.9239 98.0895 43.7745 98.7533 44.2545ZM40.5531 12.3474C42.1154 12.3474 43.386 11.0766 43.386 9.51456V7.93043C43.386 5.35076 45.4848 3.25195 48.0645 3.25195C50.6442 3.25195 52.743 5.35076 52.743 7.93043V9.51456C52.743 11.0766 54.0138 12.3474 55.5759 12.3474H63.4189V17.2742C63.4189 17.7019 63.071 18.0499 62.643 18.0499H33.4858C33.058 18.0499 32.7099 17.7019 32.7099 17.2742V12.3474H40.5531ZM14.5702 107.748C12.2475 107.748 10.3577 105.858 10.3577 103.535V16.56C10.3577 14.2373 12.2475 12.3474 14.5702 12.3474H16.3155V96.6617C16.3155 99.2565 18.4264 101.368 21.0213 101.368H52.1446L50.7942 107.748H14.5702ZM54.2512 107.12C55.9223 99.5945 55.7796 99.0864 56.5736 97.4413L62.7165 101.885C61.357 103.197 60.5216 103.388 54.2512 107.12ZM76.5614 96.6617C76.5614 97.4634 75.9092 98.1155 75.1075 98.1155H69.6364L76.5614 88.5416V96.6617ZM97.9434 53.4315L64.7407 99.3352L58.361 94.7207L60.5702 91.6665C61.0964 90.9389 60.9333 89.9224 60.2056 89.396C59.478 88.8696 58.4616 89.0331 57.935 89.7606L54.7739 94.131C54.7735 94.1315 54.7733 94.1319 54.7728 94.1323C54.7722 94.1332 54.7715 94.1343 54.7709 94.1354C53.8944 95.3479 53.2546 96.6842 52.8592 98.1155H21.0213C20.2195 98.1155 19.5674 97.4634 19.5674 96.6617V12.3474H29.4579V17.2742C29.4579 19.495 31.2647 21.3018 33.4858 21.3018H62.6432C64.8641 21.3018 66.6711 19.495 66.6711 17.2742V12.3474H76.5616V64.0093L62.3902 83.6016C61.8641 84.3292 62.0271 85.3458 62.7549 85.8722C63.4824 86.3983 64.499 86.2353 65.0254 85.5075L91.5641 48.8172C91.8267 48.4539 92.326 48.3869 92.6744 48.639L97.7656 52.3215C98.1142 52.5739 98.2057 53.0691 97.9434 53.4315Z" fill="black"/>
<path d="M66.6182 70.484C68.0892 69.0026 68.0812 66.6133 66.5996 65.1421C66.4398 64.9834 66.398 64.7432 66.4957 64.5444C66.897 63.7266 67.2467 62.8735 67.5348 62.0092C67.6057 61.7969 67.8045 61.6536 68.0304 61.653C70.118 61.6458 71.8021 59.9505 71.7947 57.8623L71.7776 52.9765C71.7704 50.894 70.0833 49.2123 67.9994 49.2123C67.9944 49.2123 67.9893 49.2125 67.984 49.2123C67.7597 49.2123 67.5609 49.0707 67.4889 48.8594C67.1945 47.9967 66.8387 47.1464 66.432 46.3315C66.3329 46.1333 66.3732 45.8929 66.5317 45.7331C67.9994 44.2555 67.991 41.8588 66.5131 40.391L63.0463 36.9485C61.576 35.4888 59.1847 35.4765 57.7042 36.9672C57.5457 37.1272 57.3053 37.1688 57.1065 37.071C56.2892 36.6699 55.4361 36.3203 54.5713 36.0319C54.359 35.961 54.2157 35.7622 54.2151 35.5359C54.2077 33.4574 52.5145 31.7719 50.4378 31.7719C50.4335 31.7719 50.4287 31.7719 50.4244 31.7719L45.5386 31.789C43.4559 31.7964 41.7672 33.4969 41.7746 35.5805C41.7755 35.8056 41.6337 36.0055 41.4219 36.0777C40.559 36.3721 39.7083 36.7278 38.894 37.1345C38.6959 37.2334 38.4552 37.1935 38.2954 37.0348C36.8178 35.5671 34.4211 35.5753 32.9534 37.0535L29.5108 40.5203C28.8 41.2363 28.4102 42.1863 28.4138 43.1951C28.4173 44.2041 28.8136 45.1513 29.5295 45.8621C29.6893 46.0208 29.7309 46.261 29.6333 46.4598C29.2322 47.2769 28.8828 48.1298 28.5942 48.9951C28.5233 49.2073 28.3245 49.3506 28.0995 49.3513C28.0919 49.3513 28.0843 49.3513 28.0767 49.3515C25.9979 49.3706 24.327 51.0627 24.3344 53.142L24.3515 58.0279C24.3589 60.1063 26.0518 61.7922 28.1292 61.7919H28.1446C28.3692 61.7919 28.5682 61.9335 28.6402 62.1447C28.9344 63.0073 29.2901 63.858 29.6971 64.6727C29.7961 64.8709 29.7558 65.1113 29.5973 65.2711C28.1264 66.7527 28.1344 69.1418 29.616 70.6132L33.0828 74.0557C34.6034 75.5653 36.9908 75.4811 38.4247 74.0371C38.5836 73.8775 38.8238 73.8357 39.0224 73.9332C39.8401 74.3345 40.6932 74.6842 41.5576 74.9723C41.7698 75.0432 41.9131 75.242 41.9138 75.4681C41.9212 77.5466 43.6143 79.2324 45.691 79.2322H45.7045L50.5902 79.215C52.6773 79.2079 54.3616 77.5134 54.3545 75.4237C54.3538 75.1984 54.4954 74.9988 54.7074 74.9264C55.5703 74.6317 56.4207 74.2762 57.2353 73.8695C57.4336 73.7704 57.6738 73.8107 57.8336 73.969C59.3137 75.4389 61.7045 75.4319 63.1757 73.9506L66.6182 70.484ZM60.1249 71.6618C58.9744 70.5193 57.2292 70.2377 55.7818 70.9605C55.0972 71.3024 54.3822 71.6013 53.657 71.8489C52.1234 72.3721 51.0966 73.8133 51.1023 75.436C51.1032 75.7261 50.8692 75.9624 50.5787 75.9633L45.693 75.9804C45.6923 75.9804 45.6917 75.9804 45.691 75.9804C45.402 75.9804 45.1666 75.7458 45.1655 75.456C45.1599 73.8341 44.1234 72.4 42.5861 71.8875C41.8594 71.6451 41.1422 71.3512 40.455 71.0138C38.9979 70.2988 37.2557 70.5991 36.1171 71.7455C35.9128 71.9513 35.5796 71.9523 35.3739 71.7481L31.9071 68.3056C31.7016 68.1014 31.7003 67.7682 31.9045 67.5624C33.047 66.4119 33.3288 64.6667 32.6058 63.2193C32.2637 62.5347 31.965 61.8197 31.7174 61.0943C31.1956 59.565 29.7608 58.5398 28.1433 58.5398C28.1389 58.5398 28.1344 58.5398 28.1301 58.5398C27.8437 58.5445 27.6039 58.3058 27.6028 58.0162L27.5857 53.1302C27.5846 52.8406 27.819 52.6041 28.1092 52.6032C28.117 52.6032 28.1249 52.6032 28.1327 52.603C29.7452 52.588 31.1682 51.5539 31.6786 50.0238C31.9212 49.2962 32.2152 48.579 32.5523 47.8924C33.2651 46.4401 32.9709 44.6968 31.8206 43.5543C31.6151 43.3501 31.6138 43.0169 31.818 42.8111L35.2605 39.3443C35.4645 39.1388 35.7979 39.1375 36.0037 39.3417C37.154 40.4843 38.8992 40.7661 40.3468 40.0431C41.0312 39.7012 41.7462 39.4022 42.4716 39.1547C44.0052 38.6313 45.0318 37.19 45.0261 35.5675C45.025 35.2777 45.26 35.0412 45.5499 35.0401L50.4354 35.0229H50.4374C50.7264 35.0229 50.9618 35.2575 50.9629 35.5474C50.9685 37.1692 52.005 38.6033 53.5423 39.1158C54.2695 39.3584 54.9866 39.6522 55.6734 39.9893C57.1256 40.7021 58.869 40.408 60.0116 39.2576C60.2015 39.0662 60.5325 39.0341 60.7547 39.255L64.2215 42.6975C64.4271 42.9018 64.4284 43.235 64.2241 43.4407C63.0818 44.5913 62.8 46.3365 63.5228 47.7836C63.8649 48.4685 64.1639 49.1837 64.4112 49.9084C64.9331 51.4381 66.3676 52.4632 67.9847 52.4632H68.0001C68.2891 52.4632 68.5245 52.6977 68.5256 52.9867L68.5427 57.8725C68.5436 58.1623 68.3099 58.3986 68.0185 58.3997C66.3967 58.4053 64.9625 59.4419 64.45 60.9792C64.2077 61.7059 63.9137 62.423 63.5763 63.1103C62.8637 64.5626 63.1577 66.3056 64.308 67.4482C64.5157 67.6543 64.5133 67.9871 64.3106 68.1913L60.8681 71.6581C60.6641 71.8648 60.3316 71.8669 60.1249 71.6618Z" fill="black"/>
<path d="M48.0656 44.0052C48.052 44.0052 48.0381 44.0052 48.0245 44.0052C41.6704 44.0276 36.5457 49.1876 36.5678 55.5423C36.5899 61.8758 41.7217 66.9989 48.0635 66.9989H48.1047C54.4583 66.9768 59.5834 61.8168 59.5613 55.4619C59.5394 49.1286 54.4076 44.0052 48.0656 44.0052ZM48.0934 63.7472C48.0834 63.7472 48.0737 63.7472 48.0637 63.7472C43.5212 63.747 39.8354 60.0792 39.8196 55.531C39.8035 50.9744 43.4782 47.2732 48.0355 47.2572H48.0652C52.6075 47.2572 56.2935 50.9252 56.3094 55.4732C56.3254 60.03 52.6507 63.7314 48.0934 63.7472Z" fill="black"/>
</g>
</mask>
<g mask="url(#mask0)">
<path d="M-9 0H104.037V113.037H-9V0Z" fill="#B38A43"/>
</g>
<defs>
<clipPath id="clip0">
<rect width="111" height="111" fill="white"/>
</clipPath>
</defs>
</svg>
