<svg width="109" height="101" viewBox="0 0 109 101" fill="none" xmlns="http://www.w3.org/2000/svg">
<mask id="mask0" mask-type="alpha" maskUnits="userSpaceOnUse" x="0" y="0" width="109" height="101">
<g clip-path="url(#clip0)">
<path d="M99.1285 30.4593L72.725 30.4441C72.498 30.4441 72.3715 30.2066 72.509 30.0373L81.1164 19.472C84.4504 15.3797 83.5978 9.5511 79.2082 6.4418C74.8197 3.3327 68.5698 4.12768 65.2348 8.22114L45.9267 31.921C44.734 33.3851 43.1887 34.5409 41.4563 35.2858C41.4451 32.7349 39.216 30.6627 36.4778 30.6627H26.7807C24.5102 30.6627 22.5898 32.0875 21.9936 34.0286H6.48453C2.90897 34.0286 0 36.7412 0 40.0756V78.2974C0 81.6316 2.90897 84.3442 6.48453 84.3442H11.8741C12.9196 86.6098 14.433 88.731 16.4141 90.5786C20.073 93.9905 24.9271 96.059 30.0821 96.4036C35.1768 96.7445 40.2471 95.3883 44.3532 92.5745C45.0594 92.0906 45.2111 91.1646 44.6921 90.5062C44.1732 89.8475 43.1798 89.7063 42.4741 90.1899C38.9802 92.5846 34.6598 93.7447 30.3089 93.4521C28.2751 93.3162 26.2961 92.8653 24.4476 92.1316C26.5941 90.2063 29.395 89.0726 32.3727 88.933C32.5246 88.8987 37.3191 88.9726 41.3188 85.2429C44.6103 82.1735 45.976 77.8076 44.9722 73.5638C44.473 71.4533 41.6619 70.7015 40.0303 72.2224L34.1307 77.7239C33.6949 78.1305 32.9858 78.1305 32.5498 77.7239L30.1989 75.5317C29.7618 75.1244 29.762 74.4651 30.1989 74.0576L36.0987 68.556C37.7293 67.0355 36.9258 64.4142 34.6604 63.9479C30.1092 63.0125 25.4272 64.2854 22.1358 67.3547C18.2118 71.0136 18.1995 75.5899 18.1801 75.6643C18.0225 78.4641 16.8061 81.0907 14.7486 83.0866C11.9268 76.88 13.2005 69.3837 18.6578 64.2947C25.8103 57.6251 37.4479 57.6249 44.6003 64.2947C50.7239 70.0049 51.667 78.8555 47.1465 85.5209C46.6781 86.2115 46.8988 87.1254 47.6394 87.5622C48.38 87.9993 49.3601 87.7932 49.8285 87.1025C50.3476 86.337 50.8084 85.54 51.2088 84.7186C53.0334 85.2315 61.9431 89.8806 75.8174 89.8806L89.3718 89.9807C94.6016 89.9807 98.7773 85.9199 98.5298 81.0199C98.4274 78.9894 97.5093 77.0818 96.0249 75.6238C99.8605 74.7928 102.802 71.6645 102.924 67.9431C103.021 65.0048 101.746 62.3646 99.5469 60.6609C102.38 59.2492 104.363 56.542 104.473 53.4409C104.56 51.0183 103.532 48.7667 101.812 47.1422C105.449 46.0539 108.167 42.9575 108.305 39.3173C108.49 34.466 104.322 30.4593 99.1285 30.4593ZM16.8222 85.3412C19.5382 82.8085 21.1458 79.4269 21.349 75.8187C21.3626 75.7669 21.3723 72.2512 24.3797 69.4471C26.7964 67.1933 30.1921 66.204 33.5409 66.7566L27.9552 71.9652C26.2783 73.5289 26.2783 76.0602 27.9552 77.6241L30.3061 79.8163C31.9792 81.3763 34.7014 81.3763 36.3745 79.8163L41.9602 74.6075C42.5534 77.7303 41.4919 80.897 39.0751 83.1505C36.0672 85.9554 32.2519 85.9673 32.202 85.9785C28.3679 86.158 24.7556 87.6567 22.0302 90.198L21.5259 90.6683C20.5001 90.0371 19.5384 89.3072 18.658 88.486C17.7663 87.6545 16.9859 86.7581 16.3166 85.8128L16.8222 85.3412ZM24.9754 57.3111V46.9791C24.9754 46.1618 24.265 45.4996 23.3888 45.4996C22.5126 45.4996 21.8022 46.1618 21.8022 46.9791V58.5381C19.86 59.4662 18.0383 60.6875 16.4141 62.2023C10.8485 67.3923 8.97507 74.7415 10.7939 81.385H6.48453C4.65867 81.385 3.1732 79.9998 3.1732 78.2972V40.0756C3.1732 38.373 4.65867 36.9878 6.48453 36.9878H21.802V40.0052C21.802 40.8224 22.5123 41.4847 23.3886 41.4847C24.2648 41.4847 24.9752 40.8224 24.9752 40.0052V35.3053C24.9752 34.377 25.785 33.6219 26.7805 33.6219H36.4776C37.4731 33.6219 38.2829 34.377 38.2829 35.3053V37.3415C38.2825 37.3604 38.2825 37.3794 38.2829 37.3983V57.3115C33.9661 56.0093 29.2922 56.0093 24.9754 57.3111ZM105.135 39.2128C105.022 42.1836 102.25 44.6003 98.9569 44.6003H83.8003C82.9315 44.6003 82.1739 45.2246 82.1479 46.0344C82.121 46.8722 82.8413 47.5593 83.7338 47.5593C89.7221 47.5735 95.3196 47.5253 95.9904 47.5962C99.0724 47.9201 101.406 50.4443 101.302 53.3427C101.196 56.3192 98.4183 58.7407 95.1102 58.7407L83.7999 58.7413C82.931 58.7413 82.1735 59.3656 82.1477 60.1754C82.1208 61.0132 82.8411 61.7003 83.7336 61.7003C86.09 61.7014 93.6979 61.6951 94.0201 61.7068C97.3993 61.8291 99.8638 64.4712 99.753 67.8528C99.6618 70.6255 97.0809 72.8811 93.9998 72.8811H83.8003C82.9315 72.8811 82.1739 73.5054 82.1479 74.3152C82.121 75.153 82.8413 75.8401 83.7338 75.8401H89.0621C89.9167 75.8401 90.7652 75.986 91.559 76.2813C91.5786 76.2886 91.5962 76.2953 91.6112 76.3011C93.8159 77.1635 95.2526 79.0249 95.3604 81.1587C95.5229 84.3787 92.7728 87.0215 89.3845 87.0215L75.8301 86.9215C62.6141 86.9215 54.5347 82.5704 52.3057 81.9405C54.5032 74.792 52.2862 67.2771 46.8442 62.2021C45.2199 60.6875 43.3985 59.4662 41.4563 58.5381V38.471C44.1969 37.5869 46.6487 35.9261 48.4534 33.711L67.7615 10.0113C70.0345 7.2214 74.2961 6.67734 77.2887 8.79834C80.2808 10.9178 80.8634 14.8917 78.5897 17.6822L69.9823 28.2476C68.2599 30.3611 69.8776 33.4019 72.7231 33.4033L99.1272 33.4185C102.509 33.4183 105.256 36.0242 105.135 39.2128Z" fill="black"/>
</g>
</mask>
<g mask="url(#mask0)">
<rect x="-2.02454" width="114.422" height="113.037" fill="#B38A43"/>
</g>
<defs>
<clipPath id="clip0">
<rect width="108.312" height="101" fill="white"/>
</clipPath>
</defs>
</svg>
