<svg width="99" height="99" viewBox="0 0 99 99" fill="none" xmlns="http://www.w3.org/2000/svg">
<mask id="mask0" mask-type="alpha" maskUnits="userSpaceOnUse" x="0" y="0" width="99" height="99">
<g clip-path="url(#clip0)">
<path d="M49.5588 0.0191304C24.1527 0.102468 3.75948 19.108 0.805725 43.2402C-0.485723 53.7899 1.70504 64.6462 6.97447 73.8099C7.19374 74.1914 7.23763 74.6462 7.09513 75.0576L0.166285 95.0442C-0.208832 96.1267 0.0610976 97.3021 0.87108 98.1119C1.67371 98.9141 2.84625 99.1953 3.93873 98.8167L23.9245 91.8882C24.3364 91.7449 24.7933 91.79 25.1773 92.0112C34.3882 97.3065 45.2987 99.4898 55.8973 98.1583C80.2816 95.0953 99 74.3658 99 49.2645C99 22.2601 77.2032 -0.0599536 49.5588 0.0191304ZM55.5359 95.2801C45.5588 96.5331 35.2902 94.4794 26.6231 89.4966C25.5105 88.8569 24.1809 88.7293 22.9744 89.1476L2.98875 96.0762C2.96497 96.0839 2.95085 96.0893 2.92185 96.0609C2.89343 96.0323 2.89845 96.0178 2.90657 95.9942L9.83541 76.0076C10.2535 74.8018 10.127 73.4736 9.48872 72.364C4.53021 63.7411 2.469 53.5232 3.68446 43.5927C6.46516 20.8766 25.6597 2.99802 49.5682 2.91952C49.6214 2.91933 49.6731 2.91913 49.7262 2.91913C75.4506 2.91913 96.0996 23.6898 96.0996 49.2645C96.0996 72.8168 78.5592 92.3886 55.5359 95.2801Z" fill="black"/>
<path d="M49.8228 13.9939C49.788 13.9935 49.7534 13.9916 49.7184 13.9916C49.6857 13.9916 49.6532 13.9935 49.6205 13.9939C42.3146 14.0157 35.1629 16.2993 29.2188 20.554C28.5676 21.0202 28.4173 21.9261 28.8837 22.5773C29.3501 23.2287 30.2562 23.3784 30.907 22.9124C33.9509 20.7336 37.341 19.1191 40.9081 18.113C36.9669 22.1069 34.4525 28.1648 33.0508 33.6369C28.9077 33.1695 25.2849 32.5287 22.4868 31.7489C23.517 30.1527 24.6924 28.637 26.0104 27.2212C26.556 26.6352 26.5234 25.7175 25.9371 25.1716C25.3508 24.6256 24.4335 24.6586 23.8875 25.2449C3.15395 47.5151 18.7008 84.4734 49.6256 84.5333C49.6565 84.5335 49.6874 84.5355 49.7184 84.5355C49.7551 84.5355 49.7916 84.5333 49.8282 84.5329C56.6723 84.507 63.4159 82.4942 69.1274 78.7233C69.7956 78.282 69.9797 77.3823 69.5385 76.7139C69.097 76.0456 68.1971 75.8619 67.5291 76.3028C64.7542 78.1349 61.7128 79.5135 58.5328 80.4099C62.4751 76.4126 64.9872 70.3523 66.3863 64.8901C70.5308 65.3577 74.1542 65.9987 76.9526 66.7787C75.713 68.6976 74.2621 70.4999 72.6084 72.1537C72.0421 72.7202 72.0421 73.6383 72.6084 74.2047C73.1752 74.771 74.0931 74.7708 74.6594 74.2047C96.6453 52.2191 81.2893 14.0801 49.8228 13.9939ZM76.9526 31.7483C74.1542 32.5284 70.5306 33.1693 66.3863 33.6369C64.9868 28.1733 62.4739 22.1109 58.5294 18.1136C66.2941 20.3113 72.7624 25.2615 76.9526 31.7483ZM65.3642 49.2636C65.3642 53.6223 64.9419 57.8459 64.1372 61.7512C60.1068 61.3797 55.7081 61.162 51.1688 61.1235V37.4037C55.7081 37.3652 60.107 37.1473 64.1372 36.7759C64.9419 40.6812 65.3642 44.9049 65.3642 49.2636ZM34.0729 49.2636C34.0729 44.9047 34.4952 40.6812 35.2999 36.7759C39.3303 37.1473 43.7291 37.3651 48.2682 37.4035V61.1233C43.7291 61.1618 39.3301 61.3797 35.2998 61.7512C34.4952 57.8461 34.0729 53.6223 34.0729 49.2636ZM48.2682 64.0239V81.4914C41.7421 80.2011 37.6908 71.0753 35.9695 64.5974C39.7921 64.2592 43.9595 64.0604 48.2682 64.0239ZM51.1686 34.5031V17.0356C57.6952 18.3259 61.7465 27.4538 63.4672 33.9296C59.6449 34.268 55.4772 34.4666 51.1686 34.5031ZM48.2682 17.0356V34.5031C43.9595 34.4666 39.7921 34.2678 35.9695 33.9296C37.6845 27.4765 41.7317 18.328 48.2682 17.0356ZM20.9838 34.3322C23.9494 35.2219 27.8811 35.9508 32.4046 36.4756C31.5965 40.4975 31.1727 44.8189 31.1727 49.2636C31.1727 53.7084 31.5965 58.0298 32.4046 62.0514C27.8817 62.5762 23.9503 63.305 20.9848 64.1946C16.1467 54.9031 16.1177 43.6751 20.9838 34.3322ZM22.4858 66.7783C25.2841 65.9985 28.9071 65.3577 33.0506 64.8901C34.4492 70.3502 36.9607 76.4118 40.9041 80.4101C33.563 78.3282 26.9101 73.6352 22.4858 66.7783ZM51.1686 81.4914V64.0239C55.4772 64.0604 59.6449 64.2592 63.4674 64.5974C61.7527 71.05 57.7051 80.1992 51.1686 81.4914ZM67.0325 62.0514C67.8406 58.0298 68.2644 53.7084 68.2644 49.2636C68.2644 44.8189 67.8406 40.4975 67.0323 36.4756C71.557 35.9506 75.4897 35.2215 78.4554 34.3314C83.3022 43.6322 83.3068 54.8861 78.4554 64.1958C75.4899 63.3056 71.5573 62.5764 67.0325 62.0514Z" fill="black"/>
</g>
</mask>
<g mask="url(#mask0)">
<rect x="-10.0707" y="-3" width="117.031" height="113.037" fill="#B38A43"/>
</g>
<defs>
<clipPath id="clip0">
<rect width="99" height="99" fill="white"/>
</clipPath>
</defs>
</svg>
