<svg width="218" height="44" viewBox="0 0 218 44" fill="none" xmlns="http://www.w3.org/2000/svg">
<path d="M8.79518 5.80428C10.1934 5.80428 11.4037 6.03645 12.426 6.5008C13.4634 6.96514 14.2602 7.6242 14.8165 8.47799C15.3728 9.33177 15.6509 10.3428 15.6509 11.5112C15.6509 12.6645 15.3728 13.6756 14.8165 14.5444C14.2602 15.3982 13.4634 16.0572 12.426 16.5216C11.4037 16.9709 10.1934 17.1956 8.79518 17.1956H5.61538V21.5319H1.96201V5.80428H8.79518ZM8.59221 14.2298C9.68973 14.2298 10.5241 13.9976 11.0955 13.5333C11.6668 13.054 11.9524 12.3799 11.9524 11.5112C11.9524 10.6274 11.6668 9.95339 11.0955 9.48905C10.5241 9.00973 9.68973 8.77007 8.59221 8.77007H5.61538V14.2298H8.59221ZM23.4514 21.7117C22.1734 21.7117 21.0233 21.4496 20.0009 20.9253C18.9936 20.3861 18.2043 19.6446 17.633 18.701C17.0617 17.7573 16.776 16.6863 16.776 15.488C16.776 14.2897 17.0617 13.2188 17.633 12.2751C18.2043 11.3314 18.9936 10.5975 20.0009 10.0732C21.0233 9.53399 22.1734 9.26437 23.4514 9.26437C24.7293 9.26437 25.8719 9.53399 26.8792 10.0732C27.8865 10.5975 28.6758 11.3314 29.2472 12.2751C29.8185 13.2188 30.1041 14.2897 30.1041 15.488C30.1041 16.6863 29.8185 17.7573 29.2472 18.701C28.6758 19.6446 27.8865 20.3861 26.8792 20.9253C25.8719 21.4496 24.7293 21.7117 23.4514 21.7117ZM23.4514 18.8358C24.3534 18.8358 25.0901 18.5362 25.6614 17.937C26.2478 17.3229 26.5409 16.5066 26.5409 15.488C26.5409 14.4695 26.2478 13.6606 25.6614 13.0615C25.0901 12.4473 24.3534 12.1403 23.4514 12.1403C22.5493 12.1403 21.8051 12.4473 21.2187 13.0615C20.6324 13.6606 20.3392 14.4695 20.3392 15.488C20.3392 16.5066 20.6324 17.3229 21.2187 17.937C21.8051 18.5362 22.5493 18.8358 23.4514 18.8358ZM38.2971 21.7117C37.0041 21.7117 35.8389 21.4496 34.8015 20.9253C33.7792 20.3861 32.9749 19.6446 32.3885 18.701C31.8172 17.7573 31.5315 16.6863 31.5315 15.488C31.5315 14.2897 31.8172 13.2188 32.3885 12.2751C32.9749 11.3314 33.7792 10.5975 34.8015 10.0732C35.8389 9.53399 37.0041 9.26437 38.2971 9.26437C39.575 9.26437 40.6875 9.53399 41.6347 10.0732C42.5969 10.5975 43.296 11.3539 43.732 12.3425L41.0033 13.8029C40.3718 12.6945 39.4622 12.1403 38.2745 12.1403C37.3574 12.1403 36.5982 12.4399 35.9968 13.039C35.3954 13.6382 35.0947 14.4545 35.0947 15.488C35.0947 16.5216 35.3954 17.3379 35.9968 17.937C36.5982 18.5362 37.3574 18.8358 38.2745 18.8358C39.4773 18.8358 40.3869 18.2816 41.0033 17.1731L43.732 18.656C43.296 19.6147 42.5969 20.3636 41.6347 20.9028C40.6875 21.4421 39.575 21.7117 38.2971 21.7117ZM137.381 21.8016C135.773 21.8016 134.314 21.4571 133.006 20.768C131.713 20.064 130.691 19.0979 129.939 17.8696C129.203 16.6264 128.834 15.2259 128.834 13.6681C128.834 12.1103 129.203 10.7173 129.939 9.48905C130.691 8.24582 131.713 7.27969 133.006 6.59067C134.314 5.88667 135.78 5.53467 137.404 5.53467C138.772 5.53467 140.005 5.77433 141.102 6.25365C142.215 6.73297 143.147 7.42199 143.899 8.32071L141.553 10.4776C140.486 9.24939 139.163 8.63526 137.584 8.63526C136.607 8.63526 135.735 8.85246 134.968 9.28684C134.202 9.70624 133.6 10.2979 133.164 11.0618C132.743 11.8257 132.533 12.6945 132.533 13.6681C132.533 14.6417 132.743 15.5105 133.164 16.2744C133.6 17.0383 134.202 17.6375 134.968 18.0719C135.735 18.4913 136.607 18.701 137.584 18.701C139.163 18.701 140.486 18.0793 141.553 16.8361L143.899 18.9931C143.147 19.9068 142.215 20.6033 141.102 21.0826C139.99 21.5619 138.749 21.8016 137.381 21.8016ZM157.386 15.533C157.386 15.5779 157.363 15.8925 157.318 16.4766H148.139C148.305 17.2256 148.696 17.8172 149.312 18.2516C149.929 18.686 150.695 18.9032 151.612 18.9032C152.244 18.9032 152.8 18.8133 153.281 18.6336C153.777 18.4388 154.236 18.1393 154.657 17.7348L156.529 19.757C155.386 21.0601 153.717 21.7117 151.522 21.7117C150.154 21.7117 148.944 21.4496 147.891 20.9253C146.839 20.3861 146.027 19.6446 145.456 18.701C144.884 17.7573 144.599 16.6863 144.599 15.488C144.599 14.3047 144.877 13.2412 145.433 12.2976C146.005 11.3389 146.779 10.5975 147.756 10.0732C148.748 9.53399 149.853 9.26437 151.071 9.26437C152.259 9.26437 153.334 9.51901 154.296 10.0283C155.258 10.5376 156.01 11.2715 156.551 12.2302C157.108 13.1738 157.386 14.2748 157.386 15.533ZM151.094 11.9156C150.297 11.9156 149.628 12.1403 149.087 12.5896C148.545 13.039 148.215 13.6531 148.094 14.432H154.071C153.95 13.6681 153.62 13.0615 153.078 12.6121C152.537 12.1478 151.876 11.9156 151.094 11.9156ZM167.231 9.26437C168.359 9.26437 169.381 9.5265 170.297 10.0508C171.231 10.56 171.96 11.2865 172.485 12.2302C173.012 13.1588 173.275 14.2448 173.275 15.488C173.275 16.7313 173.012 17.8247 172.485 18.7684C171.96 19.6971 171.231 20.4235 170.297 20.9478C169.381 21.4571 168.359 21.7117 167.231 21.7117C165.683 21.7117 164.465 21.2249 163.578 20.2513V25.8908H160.06V9.44411H163.42V10.8371C164.292 9.78863 165.563 9.26437 167.231 9.26437ZM166.622 18.8358C167.525 18.8358 168.261 18.5362 168.833 17.937C169.419 17.3229 169.712 16.5066 169.712 15.488C169.712 14.4695 169.419 13.6606 168.833 13.0615C168.261 12.4473 167.525 12.1403 166.622 12.1403C165.72 12.1403 164.976 12.4473 164.39 13.0615C163.819 13.6606 163.533 14.4695 163.533 15.488C163.533 16.5066 163.819 17.3229 164.39 17.937C164.976 18.5362 165.72 18.8358 166.622 18.8358ZM185.01 15.2184C186.438 15.6977 187.152 16.6564 187.152 18.0943C187.152 19.1878 186.739 20.0341 185.912 20.6332C185.085 21.2324 183.852 21.5319 182.213 21.5319H175.741V9.44411H181.943C183.461 9.44411 184.649 9.72122 185.506 10.2754C186.363 10.8147 186.791 11.5786 186.791 12.5672C186.791 13.1663 186.633 13.6981 186.318 14.1624C186.017 14.6118 185.581 14.9638 185.01 15.2184ZM178.966 14.4096H181.627C182.86 14.4096 183.476 13.9752 183.476 13.1064C183.476 12.2526 182.86 11.8257 181.627 11.8257H178.966V14.4096ZM181.92 19.1503C183.213 19.1503 183.86 18.7085 183.86 17.8247C183.86 17.3604 183.709 17.0233 183.408 16.8136C183.108 16.589 182.634 16.4766 181.988 16.4766H178.966V19.1503H181.92ZM189.769 9.44411H193.265V16.6339L199.173 9.44411H202.398V21.5319H198.902V14.3422L193.016 21.5319H189.769V9.44411ZM211.553 21.7117C210.26 21.7117 209.095 21.4496 208.058 20.9253C207.035 20.3861 206.231 19.6446 205.644 18.701C205.073 17.7573 204.788 16.6863 204.788 15.488C204.788 14.2897 205.073 13.2188 205.644 12.2751C206.231 11.3314 207.035 10.5975 208.058 10.0732C209.095 9.53399 210.26 9.26437 211.553 9.26437C212.831 9.26437 213.944 9.53399 214.891 10.0732C215.853 10.5975 216.552 11.3539 216.988 12.3425L214.259 13.8029C213.628 12.6945 212.718 12.1403 211.53 12.1403C210.613 12.1403 209.854 12.4399 209.253 13.039C208.651 13.6382 208.351 14.4545 208.351 15.488C208.351 16.5216 208.651 17.3379 209.253 17.937C209.854 18.5362 210.613 18.8358 211.53 18.8358C212.733 18.8358 213.643 18.2816 214.259 17.1731L216.988 18.656C216.552 19.6147 215.853 20.3636 214.891 20.9028C213.944 21.4421 212.831 21.7117 211.553 21.7117Z" fill="#E3B057"/>
<path d="M57.2584 8.77005H49.7487L49.7713 21.5319H46.1404V5.80426H57.281L57.2584 8.77005ZM63.9512 9.26435C65.8305 9.26435 67.2738 9.71371 68.2812 10.6124C69.2885 11.4962 69.7921 12.8368 69.7921 14.6342V21.5319H66.4996V20.0266C65.8381 21.15 64.6052 21.7117 62.8011 21.7117C61.869 21.7117 61.0571 21.5544 60.3655 21.2398C59.689 20.9253 59.1703 20.4909 58.8094 19.9367C58.4486 19.3825 58.2682 18.7534 58.2682 18.0494C58.2682 16.926 58.6892 16.0422 59.5311 15.3981C60.3881 14.754 61.7036 14.432 63.4776 14.432H66.2741C66.2741 13.6681 66.041 13.0839 65.575 12.6795C65.1089 12.2601 64.4098 12.0504 63.4776 12.0504C62.8312 12.0504 62.1922 12.1552 61.5607 12.3649C60.9443 12.5597 60.4181 12.8293 59.9821 13.1738L58.7192 10.7248C59.3807 10.2604 60.1701 9.90094 61.0872 9.6463C62.0193 9.39166 62.974 9.26435 63.9512 9.26435ZM63.6806 19.3525C64.282 19.3525 64.8157 19.2177 65.2818 18.9481C65.7478 18.6635 66.0786 18.2516 66.2741 17.7123V16.4766H63.861C62.4177 16.4766 61.6961 16.9484 61.6961 17.8921C61.6961 18.3415 61.869 18.7009 62.2147 18.9706C62.5756 19.2252 63.0642 19.3525 63.6806 19.3525ZM79.9972 9.26435C81.1247 9.26435 82.1471 9.52647 83.0642 10.0507C83.9963 10.56 84.7255 11.2865 85.2517 12.2301C85.7779 13.1588 86.041 14.2448 86.041 15.488C86.041 16.7312 85.7779 17.8247 85.2517 18.7683C84.7255 19.697 83.9963 20.4235 83.0642 20.9477C82.1471 21.457 81.1247 21.7117 79.9972 21.7117C78.4486 21.7117 77.2308 21.2249 76.3438 20.2512V25.8907H72.8257V9.44409H76.1859V10.8371C77.0579 9.7886 78.3283 9.26435 79.9972 9.26435ZM79.3883 18.8358C80.2903 18.8358 81.027 18.5362 81.5983 17.937C82.1847 17.3229 82.4778 16.5066 82.4778 15.488C82.4778 14.4695 82.1847 13.6606 81.5983 13.0615C81.027 12.4473 80.2903 12.1403 79.3883 12.1403C78.4862 12.1403 77.742 12.4473 77.1556 13.0615C76.5843 13.6606 76.2987 14.4695 76.2987 15.488C76.2987 16.5066 76.5843 17.3229 77.1556 17.937C77.742 18.5362 78.4862 18.8358 79.3883 18.8358ZM93.0218 9.26435C94.9014 9.26435 96.3447 9.71371 97.352 10.6124C98.3593 11.4962 98.863 12.8368 98.863 14.6342V21.5319H95.5704V20.0266C94.9089 21.15 93.6758 21.7117 91.8717 21.7117C90.9395 21.7117 90.1277 21.5544 89.4361 21.2398C88.7595 20.9253 88.2408 20.4909 87.88 19.9367C87.5192 19.3825 87.3388 18.7534 87.3388 18.0494C87.3388 16.926 87.7597 16.0422 88.6017 15.3981C89.4586 14.754 90.7742 14.432 92.5482 14.432H95.3449C95.3449 13.6681 95.1119 13.0839 94.6458 12.6795C94.1797 12.2601 93.4804 12.0504 92.5482 12.0504C91.9017 12.0504 91.2628 12.1552 90.6313 12.3649C90.0149 12.5597 89.4887 12.8293 89.0527 13.1738L87.7898 10.7248C88.4513 10.2604 89.2406 9.90094 90.1577 9.6463C91.0899 9.39166 92.0446 9.26435 93.0218 9.26435ZM92.7512 19.3525C93.3526 19.3525 93.8863 19.2177 94.3526 18.9481C94.8187 18.6635 95.1495 18.2516 95.3449 17.7123V16.4766H92.9316C91.4883 16.4766 90.7666 16.9484 90.7666 17.8921C90.7666 18.3415 90.9395 18.7009 91.2853 18.9706C91.6462 19.2252 92.1348 19.3525 92.7512 19.3525ZM101.919 9.44409H105.414V14.1624H110.691V9.44409H114.209V21.5319H110.691V17.0158H105.414V21.5319H101.919V9.44409ZM127.771 12.32H123.666V21.5319H120.171V12.32H116.066V9.44409H127.771V12.32Z" fill="#FAFAFA"/>
<path d="M6.51088 36.798C7.10537 36.9198 7.55734 37.1591 7.8668 37.5161C8.17625 37.865 8.33099 38.3234 8.33099 38.8913C8.33099 39.6297 8.06632 40.1976 7.53698 40.5952C7.01578 40.9927 6.2462 41.1915 5.22825 41.1915H1.44144V32.6724H4.99615C5.90825 32.6724 6.62082 32.8589 7.13387 33.2322C7.64692 33.6054 7.90345 34.1449 7.90345 34.8508C7.90345 35.3295 7.78129 35.7352 7.53698 36.0678C7.29267 36.3924 6.95063 36.6358 6.51088 36.798ZM2.33317 36.5303H4.94729C5.60693 36.5303 6.11183 36.3964 6.46201 36.1287C6.82033 35.8609 6.9995 35.4715 6.9995 34.9604C6.9995 34.4492 6.82033 34.0598 6.46201 33.792C6.11183 33.5243 5.60693 33.3904 4.94729 33.3904H2.33317V36.5303ZM5.22825 40.4735C6.70226 40.4735 7.43926 39.9258 7.43926 38.8305C7.43926 37.7595 6.70226 37.224 5.22825 37.224H2.33317V40.4735H5.22825ZM12.5945 34.7413C13.4333 34.7413 14.0766 34.9522 14.5245 35.3741C14.9725 35.7879 15.1964 36.4046 15.1964 37.224V41.1915H14.3657V40.1935C14.1703 40.5262 13.8812 40.7859 13.4984 40.9724C13.1238 41.159 12.676 41.2523 12.1547 41.2523C11.4381 41.2523 10.8681 41.082 10.4446 40.7412C10.0211 40.4004 9.80935 39.9501 9.80935 39.3903C9.80935 38.8467 10.0048 38.4085 10.3957 38.0759C10.7948 37.7433 11.4258 37.5769 12.2891 37.5769H14.3291V37.1875C14.3291 36.6358 14.1743 36.2179 13.8649 35.934C13.5555 35.6419 13.1035 35.4958 12.509 35.4958C12.1018 35.4958 11.7109 35.5648 11.3363 35.7027C10.9616 35.8326 10.64 36.0151 10.3713 36.2504L9.98036 35.6054C10.3061 35.3295 10.697 35.1186 11.1531 34.9725C11.6091 34.8183 12.0896 34.7413 12.5945 34.7413ZM12.2891 40.5708C12.7777 40.5708 13.1971 40.4613 13.5473 40.2422C13.8975 40.015 14.1581 39.6905 14.3291 39.2686V38.222H12.3135C11.2141 38.222 10.6644 38.6033 10.6644 39.366C10.6644 39.7392 10.807 40.0353 11.092 40.2544C11.377 40.4653 11.776 40.5708 12.2891 40.5708ZM26.3737 34.79V41.1915H17.5052V34.79H18.3725V40.4369H21.5241V34.79H22.3914V40.4369H25.5064V34.79H26.3737ZM34.469 38.2585H29.0942C29.143 38.9238 29.3996 39.4633 29.8638 39.8771C30.3279 40.2828 30.9143 40.4856 31.6228 40.4856C32.0219 40.4856 32.3883 40.4166 32.7222 40.2787C33.0561 40.1327 33.3452 39.9218 33.5895 39.6459L34.0781 40.2057C33.7931 40.5465 33.4348 40.8061 33.0031 40.9846C32.5797 41.1631 32.1114 41.2523 31.5984 41.2523C30.9387 41.2523 30.3524 41.1145 29.8393 40.8386C29.3344 40.5546 28.9395 40.1652 28.6544 39.6702C28.3694 39.1753 28.2269 38.6154 28.2269 37.9907C28.2269 37.366 28.3612 36.8062 28.63 36.3112C28.9069 35.8163 29.2815 35.431 29.7538 35.1551C30.2343 34.8792 30.7718 34.7413 31.3663 34.7413C31.9608 34.7413 32.4942 34.8792 32.9665 35.1551C33.4389 35.431 33.8094 35.8163 34.0781 36.3112C34.3468 36.798 34.4812 37.3579 34.4812 37.9907L34.469 38.2585ZM31.3663 35.4837C30.7474 35.4837 30.2262 35.6824 29.8027 36.08C29.3873 36.4695 29.1512 36.9806 29.0942 37.6135H33.6506C33.5936 36.9806 33.3533 36.4695 32.9298 36.08C32.5145 35.6824 31.9934 35.4837 31.3663 35.4837ZM42.2855 41.2523C41.6503 41.2523 41.0803 41.1145 40.5753 40.8386C40.0786 40.5627 39.6878 40.1773 39.4027 39.6824C39.1177 39.1794 38.9751 38.6154 38.9751 37.9907C38.9751 37.366 39.1177 36.8062 39.4027 36.3112C39.6878 35.8163 40.0786 35.431 40.5753 35.1551C41.0803 34.8792 41.6503 34.7413 42.2855 34.7413C42.8394 34.7413 43.332 34.8508 43.7636 35.0699C44.2034 35.2808 44.5495 35.5932 44.8019 36.007L44.1545 36.4451C43.9428 36.1287 43.674 35.8934 43.3483 35.7392C43.0226 35.577 42.6683 35.4958 42.2855 35.4958C41.8213 35.4958 41.402 35.6013 41.0273 35.8123C40.6609 36.0151 40.3718 36.3072 40.16 36.6885C39.9565 37.0698 39.8546 37.5039 39.8546 37.9907C39.8546 38.4857 39.9565 38.9238 40.16 39.3051C40.3718 39.6784 40.6609 39.9705 41.0273 40.1814C41.402 40.3842 41.8213 40.4856 42.2855 40.4856C42.6683 40.4856 43.0226 40.4086 43.3483 40.2544C43.674 40.1002 43.9428 39.8649 44.1545 39.5485L44.8019 39.9866C44.5495 40.4004 44.2034 40.7169 43.7636 40.9359C43.3238 41.1468 42.8312 41.2523 42.2855 41.2523ZM52.247 34.79V41.1915H51.3797V35.5567H47.3486V41.1915H46.4813V34.79H52.247ZM57.3632 41.2523C56.7443 41.2523 56.1865 41.1145 55.6897 40.8386C55.1929 40.5546 54.802 40.1652 54.517 39.6702C54.232 39.1753 54.0895 38.6154 54.0895 37.9907C54.0895 37.366 54.232 36.8062 54.517 36.3112C54.802 35.8163 55.1929 35.431 55.6897 35.1551C56.1865 34.8792 56.7443 34.7413 57.3632 34.7413C57.9822 34.7413 58.54 34.8792 59.0368 35.1551C59.5335 35.431 59.9203 35.8163 60.1972 36.3112C60.4822 36.8062 60.6248 37.366 60.6248 37.9907C60.6248 38.6154 60.4822 39.1753 60.1972 39.6702C59.9203 40.1652 59.5335 40.5546 59.0368 40.8386C58.54 41.1145 57.9822 41.2523 57.3632 41.2523ZM57.3632 40.4856C57.8192 40.4856 58.2265 40.3842 58.5848 40.1814C58.9512 39.9705 59.2362 39.6742 59.4399 39.2929C59.6435 38.9116 59.7453 38.4775 59.7453 37.9907C59.7453 37.5039 59.6435 37.0698 59.4399 36.6885C59.2362 36.3072 58.9512 36.0151 58.5848 35.8123C58.2265 35.6013 57.8192 35.4958 57.3632 35.4958C56.9072 35.4958 56.4959 35.6013 56.1295 35.8123C55.7712 36.0151 55.4861 36.3072 55.2744 36.6885C55.0708 37.0698 54.969 37.5039 54.969 37.9907C54.969 38.4775 55.0708 38.9116 55.2744 39.2929C55.4861 39.6742 55.7712 39.9705 56.1295 40.1814C56.4959 40.3842 56.9072 40.4856 57.3632 40.4856ZM64.8115 38.3437H63.3456V41.1915H62.4783V34.79H63.3456V37.6013H64.8237L67.0836 34.79H68.0242L65.4956 37.8934L68.2074 41.1915H67.1813L64.8115 38.3437ZM72.0003 41.2523C71.3815 41.2523 70.8236 41.1145 70.3268 40.8386C69.8301 40.5546 69.4392 40.1652 69.1541 39.6702C68.8691 39.1753 68.7266 38.6154 68.7266 37.9907C68.7266 37.366 68.8691 36.8062 69.1541 36.3112C69.4392 35.8163 69.8301 35.431 70.3268 35.1551C70.8236 34.8792 71.3815 34.7413 72.0003 34.7413C72.6193 34.7413 73.1772 34.8792 73.6739 35.1551C74.1706 35.431 74.5575 35.8163 74.8343 36.3112C75.1194 36.8062 75.2619 37.366 75.2619 37.9907C75.2619 38.6154 75.1194 39.1753 74.8343 39.6702C74.5575 40.1652 74.1706 40.5546 73.6739 40.8386C73.1772 41.1145 72.6193 41.2523 72.0003 41.2523ZM72.0003 40.4856C72.4564 40.4856 72.8636 40.3842 73.2219 40.1814C73.5883 39.9705 73.8734 39.6742 74.077 39.2929C74.2806 38.9116 74.3824 38.4775 74.3824 37.9907C74.3824 37.5039 74.2806 37.0698 74.077 36.6885C73.8734 36.3072 73.5883 36.0151 73.2219 35.8123C72.8636 35.6013 72.4564 35.4958 72.0003 35.4958C71.5443 35.4958 71.133 35.6013 70.7666 35.8123C70.4083 36.0151 70.1233 36.3072 69.9115 36.6885C69.7079 37.0698 69.6061 37.5039 69.6061 37.9907C69.6061 38.4775 69.7079 38.9116 69.9115 39.2929C70.1233 39.6742 70.4083 39.9705 70.7666 40.1814C71.133 40.3842 71.5443 40.4856 72.0003 40.4856ZM77.1155 34.79H77.9828V39.8771L82.2705 34.79H83.0401V41.1915H82.1728V36.1044L77.8973 41.1915H77.1155V34.79ZM80.035 33.865C79.4812 33.865 79.0414 33.7271 78.7158 33.4512C78.39 33.1754 78.223 32.7859 78.2149 32.2829H78.8379C78.846 32.5993 78.9601 32.8549 79.18 33.0496C79.3998 33.2362 79.6848 33.3295 80.035 33.3295C80.3852 33.3295 80.6702 33.2362 80.8901 33.0496C81.1181 32.8549 81.2362 32.5993 81.2444 32.2829H81.8674C81.8592 32.7859 81.6882 33.1754 81.3543 33.4512C81.0285 33.7271 80.5888 33.865 80.035 33.865ZM88.213 41.2523C87.5778 41.2523 87.0078 41.1145 86.5029 40.8386C86.0061 40.5627 85.6152 40.1773 85.3302 39.6824C85.0451 39.1794 84.9026 38.6154 84.9026 37.9907C84.9026 37.366 85.0451 36.8062 85.3302 36.3112C85.6152 35.8163 86.0061 35.431 86.5029 35.1551C87.0078 34.8792 87.5778 34.7413 88.213 34.7413C88.7668 34.7413 89.2595 34.8508 89.6911 35.0699C90.1309 35.2808 90.477 35.5932 90.7294 36.007L90.082 36.4451C89.8702 36.1287 89.6015 35.8934 89.2758 35.7392C88.95 35.577 88.5958 35.4958 88.213 35.4958C87.7489 35.4958 87.3294 35.6013 86.9548 35.8123C86.5884 36.0151 86.2992 36.3072 86.0875 36.6885C85.8839 37.0698 85.7822 37.5039 85.7822 37.9907C85.7822 38.4857 85.8839 38.9238 86.0875 39.3051C86.2992 39.6784 86.5884 39.9705 86.9548 40.1814C87.3294 40.3842 87.7489 40.4856 88.213 40.4856C88.5958 40.4856 88.95 40.4086 89.2758 40.2544C89.6015 40.1002 89.8702 39.8649 90.082 39.5485L90.7294 39.9866C90.477 40.4004 90.1309 40.7169 89.6911 40.9359C89.2514 41.1468 88.7586 41.2523 88.213 41.2523ZM96.8089 35.5567H94.378V41.1915H93.511V35.5567H91.0801V34.79H96.8089V35.5567ZM102.156 37.8812C103.027 38.0841 103.463 38.6074 103.463 39.4512C103.463 40.011 103.255 40.441 102.84 40.7412C102.424 41.0414 101.805 41.1915 100.983 41.1915H98.0634V34.79H100.897C101.63 34.79 102.204 34.932 102.62 35.2159C103.035 35.4999 103.243 35.9056 103.243 36.4329C103.243 36.7819 103.145 37.082 102.95 37.3335C102.763 37.5769 102.498 37.7595 102.156 37.8812ZM98.9062 37.6378H100.836C101.333 37.6378 101.712 37.5445 101.972 37.3579C102.241 37.1713 102.375 36.8994 102.375 36.5425C102.375 36.1855 102.241 35.9178 101.972 35.7392C101.712 35.5607 101.333 35.4715 100.836 35.4715H98.9062V37.6378ZM100.946 40.51C101.5 40.51 101.915 40.4207 102.192 40.2422C102.469 40.0637 102.608 39.7838 102.608 39.4025C102.608 39.0212 102.482 38.7413 102.229 38.5627C101.976 38.3762 101.578 38.2828 101.032 38.2828H98.9062V40.51H100.946ZM105.495 34.79H106.362V39.8771L110.65 34.79H111.42V41.1915H110.552V36.1044L106.277 41.1915H105.495V34.79ZM119.524 38.2585H114.149C114.198 38.9238 114.455 39.4633 114.919 39.8771C115.383 40.2828 115.969 40.4856 116.678 40.4856C117.077 40.4856 117.444 40.4166 117.777 40.2787C118.112 40.1327 118.4 39.9218 118.645 39.6459L119.133 40.2057C118.849 40.5465 118.491 40.8061 118.058 40.9846C117.635 41.1631 117.167 41.2523 116.653 41.2523C115.994 41.2523 115.408 41.1145 114.894 40.8386C114.39 40.5546 113.995 40.1652 113.71 39.6702C113.425 39.1753 113.282 38.6154 113.282 37.9907C113.282 37.366 113.416 36.8062 113.685 36.3112C113.962 35.8163 114.337 35.431 114.809 35.1551C115.29 34.8792 115.828 34.7413 116.421 34.7413C117.016 34.7413 117.55 34.8792 118.022 35.1551C118.494 35.431 118.865 35.8163 119.133 36.3112C119.402 36.798 119.536 37.3579 119.536 37.9907L119.524 38.2585ZM116.421 35.4837C115.803 35.4837 115.282 35.6824 114.858 36.08C114.442 36.4695 114.207 36.9806 114.149 37.6135H118.706C118.649 36.9806 118.409 36.4695 117.985 36.08C117.57 35.6824 117.049 35.4837 116.421 35.4837ZM124.153 37.5161H127.353V38.2706H124.153V37.5161ZM132.515 34.79H133.382V37.6256H137.426V34.79H138.293V41.1915H137.426V38.368H133.382V41.1915H132.515V34.79ZM142.969 34.7413C143.808 34.7413 144.451 34.9522 144.899 35.3741C145.347 35.7879 145.57 36.4046 145.57 37.224V41.1915H144.74V40.1935C144.544 40.5262 144.256 40.7859 143.872 40.9724C143.499 41.159 143.05 41.2523 142.529 41.2523C141.813 41.2523 141.242 41.082 140.819 40.7412C140.396 40.4004 140.183 39.9501 140.183 39.3903C140.183 38.8467 140.379 38.4085 140.77 38.0759C141.169 37.7433 141.801 37.5769 142.663 37.5769H144.703V37.1875C144.703 36.6358 144.549 36.2179 144.239 35.934C143.93 35.6419 143.478 35.4958 142.883 35.4958C142.476 35.4958 142.085 35.5648 141.71 35.7027C141.336 35.8326 141.014 36.0151 140.745 36.2504L140.354 35.6054C140.68 35.3295 141.071 35.1186 141.527 34.9725C141.984 34.8183 142.464 34.7413 142.969 34.7413ZM142.663 40.5708C143.152 40.5708 143.572 40.4613 143.921 40.2422C144.272 40.015 144.532 39.6905 144.703 39.2686V38.222H142.688C141.588 38.222 141.038 38.6033 141.038 39.366C141.038 39.7392 141.181 40.0353 141.466 40.2544C141.752 40.4653 142.15 40.5708 142.663 40.5708ZM156.748 34.79V41.1915H147.879V34.79H148.746V40.4369H151.898V34.79H152.765V40.4369H155.88V34.79H156.748ZM161.436 34.7413C162.274 34.7413 162.917 34.9522 163.366 35.3741C163.813 35.7879 164.037 36.4046 164.037 37.224V41.1915H163.207V40.1935C163.011 40.5262 162.722 40.7859 162.34 40.9724C161.965 41.159 161.516 41.2523 160.996 41.2523C160.279 41.2523 159.708 41.082 159.286 40.7412C158.862 40.4004 158.65 39.9501 158.65 39.3903C158.65 38.8467 158.846 38.4085 159.237 38.0759C159.635 37.7433 160.267 37.5769 161.13 37.5769H163.17V37.1875C163.17 36.6358 163.015 36.2179 162.706 35.934C162.396 35.6419 161.944 35.4958 161.35 35.4958C160.942 35.4958 160.551 35.5648 160.177 35.7027C159.802 35.8326 159.481 36.0151 159.212 36.2504L158.821 35.6054C159.147 35.3295 159.537 35.1186 159.994 34.9725C160.45 34.8183 160.93 34.7413 161.436 34.7413ZM161.13 40.5708C161.619 40.5708 162.038 40.4613 162.388 40.2422C162.738 40.015 162.999 39.6905 163.17 39.2686V38.222H161.155C160.055 38.222 159.506 38.6033 159.506 39.366C159.506 39.7392 159.647 40.0353 159.933 40.2544C160.218 40.4653 160.617 40.5708 161.13 40.5708ZM172.853 34.7413C173.456 34.7413 174.002 34.8792 174.49 35.1551C174.979 35.4228 175.361 35.8041 175.638 36.2991C175.916 36.794 176.054 37.3579 176.054 37.9907C176.054 38.6317 175.916 39.1996 175.638 39.6946C175.361 40.1895 174.979 40.5748 174.49 40.8507C174.01 41.1185 173.464 41.2523 172.853 41.2523C172.332 41.2523 171.86 41.1468 171.436 40.9359C171.021 40.7169 170.679 40.4004 170.41 39.9866V43.5525H169.543V34.79H170.374V36.0557C170.634 35.6337 170.976 35.3093 171.4 35.082C171.831 34.8548 172.316 34.7413 172.853 34.7413ZM172.792 40.4856C173.24 40.4856 173.647 40.3842 174.014 40.1814C174.38 39.9705 174.665 39.6742 174.869 39.2929C175.08 38.9116 175.186 38.4775 175.186 37.9907C175.186 37.5039 175.08 37.0739 174.869 36.7007C174.665 36.3194 174.38 36.0232 174.014 35.8123C173.647 35.6013 173.24 35.4958 172.792 35.4958C172.337 35.4958 171.925 35.6013 171.558 35.8123C171.2 36.0232 170.915 36.3194 170.703 36.7007C170.499 37.0739 170.398 37.5039 170.398 37.9907C170.398 38.4775 170.499 38.9116 170.703 39.2929C170.915 39.6742 171.2 39.9705 171.558 40.1814C171.925 40.3842 172.337 40.4856 172.792 40.4856ZM180.092 34.7413C180.932 34.7413 181.575 34.9522 182.022 35.3741C182.471 35.7879 182.694 36.4046 182.694 37.224V41.1915H181.864V40.1935C181.668 40.5262 181.38 40.7859 180.996 40.9724C180.622 41.159 180.174 41.2523 179.653 41.2523C178.937 41.2523 178.366 41.082 177.942 40.7412C177.52 40.4004 177.307 39.9501 177.307 39.3903C177.307 38.8467 177.503 38.4085 177.894 38.0759C178.293 37.7433 178.924 37.5769 179.787 37.5769H181.827V37.1875C181.827 36.6358 181.673 36.2179 181.363 35.934C181.054 35.6419 180.602 35.4958 180.007 35.4958C179.6 35.4958 179.209 35.5648 178.834 35.7027C178.46 35.8326 178.138 36.0151 177.869 36.2504L177.478 35.6054C177.804 35.3295 178.195 35.1186 178.651 34.9725C179.108 34.8183 179.588 34.7413 180.092 34.7413ZM179.787 40.5708C180.276 40.5708 180.696 40.4613 181.045 40.2422C181.396 40.015 181.656 39.6905 181.827 39.2686V38.222H179.811C178.712 38.222 178.162 38.6033 178.162 39.366C178.162 39.7392 178.305 40.0353 178.59 40.2544C178.876 40.4653 179.274 40.5708 179.787 40.5708ZM188.118 34.9482C188.713 34.9482 189.242 35.082 189.706 35.3498C190.179 35.6094 190.545 35.9786 190.805 36.4573C191.067 36.9279 191.196 37.4674 191.196 38.0759C191.196 38.7006 191.058 39.2564 190.781 39.7432C190.512 40.2219 190.134 40.5952 189.645 40.8629C189.156 41.1306 188.594 41.2645 187.959 41.2645C186.893 41.2645 186.066 40.8913 185.479 40.1449C184.893 39.3984 184.6 38.368 184.6 37.0536C184.6 35.6824 184.861 34.6318 185.382 33.9015C185.912 33.1713 186.734 32.6764 187.849 32.4168L190.732 31.7596L190.879 32.5506L188.167 33.1713C187.247 33.3742 186.571 33.7352 186.139 34.2545C185.708 34.7656 185.472 35.5242 185.431 36.5303C185.692 36.0354 186.054 35.65 186.518 35.3741C186.982 35.0902 187.516 34.9482 188.118 34.9482ZM187.984 40.5465C188.432 40.5465 188.831 40.4451 189.181 40.2422C189.54 40.0313 189.816 39.7392 190.011 39.366C190.215 38.9927 190.317 38.5709 190.317 38.1003C190.317 37.6297 190.219 37.2159 190.024 36.8589C189.828 36.5019 189.552 36.226 189.193 36.0313C188.843 35.8285 188.44 35.7271 187.984 35.7271C187.528 35.7271 187.121 35.8285 186.762 36.0313C186.413 36.226 186.135 36.5019 185.931 36.8589C185.736 37.2159 185.638 37.6297 185.638 38.1003C185.638 38.5709 185.736 38.9927 185.931 39.366C186.135 39.7392 186.416 40.0313 186.774 40.2422C187.133 40.4451 187.536 40.5465 187.984 40.5465ZM195.707 41.2523C195.087 41.2523 194.529 41.1145 194.033 40.8386C193.536 40.5546 193.145 40.1652 192.86 39.6702C192.575 39.1753 192.433 38.6154 192.433 37.9907C192.433 37.366 192.575 36.8062 192.86 36.3112C193.145 35.8163 193.536 35.431 194.033 35.1551C194.529 34.8792 195.087 34.7413 195.707 34.7413C196.325 34.7413 196.883 34.8792 197.38 35.1551C197.876 35.431 198.263 35.8163 198.541 36.3112C198.825 36.8062 198.968 37.366 198.968 37.9907C198.968 38.6154 198.825 39.1753 198.541 39.6702C198.263 40.1652 197.876 40.5546 197.38 40.8386C196.883 41.1145 196.325 41.2523 195.707 41.2523ZM195.707 40.4856C196.162 40.4856 196.569 40.3842 196.928 40.1814C197.295 39.9705 197.579 39.6742 197.783 39.2929C197.986 38.9116 198.089 38.4775 198.089 37.9907C198.089 37.5039 197.986 37.0698 197.783 36.6885C197.579 36.3072 197.295 36.0151 196.928 35.8123C196.569 35.6013 196.162 35.4958 195.707 35.4958C195.25 35.4958 194.839 35.6013 194.473 35.8123C194.114 36.0151 193.829 36.3072 193.618 36.6885C193.414 37.0698 193.312 37.5039 193.312 37.9907C193.312 38.4775 193.414 38.9116 193.618 39.2929C193.829 39.6742 194.114 39.9705 194.473 40.1814C194.839 40.3842 195.25 40.4856 195.707 40.4856ZM205.102 35.5567H202.671V41.1915H201.804V35.5567H199.373V34.79H205.102V35.5567ZM208.568 34.7413C209.407 34.7413 210.05 34.9522 210.498 35.3741C210.946 35.7879 211.17 36.4046 211.17 37.224V41.1915H210.339V40.1935C210.144 40.5262 209.854 40.7859 209.472 40.9724C209.097 41.159 208.649 41.2523 208.128 41.2523C207.411 41.2523 206.842 41.082 206.418 40.7412C205.994 40.4004 205.783 39.9501 205.783 39.3903C205.783 38.8467 205.978 38.4085 206.369 38.0759C206.768 37.7433 207.399 37.5769 208.262 37.5769H210.302V37.1875C210.302 36.6358 210.147 36.2179 209.838 35.934C209.529 35.6419 209.077 35.4958 208.482 35.4958C208.075 35.4958 207.684 35.5648 207.31 35.7027C206.935 35.8326 206.613 36.0151 206.345 36.2504L205.954 35.6054C206.28 35.3295 206.671 35.1186 207.126 34.9725C207.582 34.8183 208.063 34.7413 208.568 34.7413ZM208.262 40.5708C208.751 40.5708 209.17 40.4613 209.521 40.2422C209.871 40.015 210.131 39.6905 210.302 39.2686V38.222H208.287C207.187 38.222 206.638 38.6033 206.638 39.366C206.638 39.7392 206.781 40.0353 207.065 40.2544C207.35 40.4653 207.749 40.5708 208.262 40.5708Z" fill="#FAFAFA"/>
</svg>
