<svg width="232" height="30" viewBox="0 0 232 30" fill="none" xmlns="http://www.w3.org/2000/svg">
<path d="M9.36 6.83507C10.848 6.83507 12.136 7.08307 13.224 7.57907C14.328 8.07507 15.176 8.77907 15.768 9.69107C16.36 10.6031 16.656 11.6831 16.656 12.9311C16.656 14.1631 16.36 15.2431 15.768 16.1711C15.176 17.0831 14.328 17.7871 13.224 18.2831C12.136 18.7631 10.848 19.0031 9.36 19.0031H5.976V23.6351H2.088V6.83507H9.36ZM9.144 15.8351C10.312 15.8351 11.2 15.5871 11.808 15.0911C12.416 14.5791 12.72 13.8591 12.72 12.9311C12.72 11.9871 12.416 11.2671 11.808 10.7711C11.2 10.2591 10.312 10.0031 9.144 10.0031H5.976V15.8351H9.144ZM24.9574 23.8271C23.5974 23.8271 22.3734 23.5471 21.2854 22.9871C20.2134 22.4111 19.3734 21.6191 18.7654 20.6111C18.1574 19.6031 17.8534 18.4591 17.8534 17.1791C17.8534 15.8991 18.1574 14.7551 18.7654 13.7471C19.3734 12.7391 20.2134 11.9551 21.2854 11.3951C22.3734 10.8191 23.5974 10.5311 24.9574 10.5311C26.3174 10.5311 27.5334 10.8191 28.6054 11.3951C29.6774 11.9551 30.5174 12.7391 31.1254 13.7471C31.7334 14.7551 32.0374 15.8991 32.0374 17.1791C32.0374 18.4591 31.7334 19.6031 31.1254 20.6111C30.5174 21.6191 29.6774 22.4111 28.6054 22.9871C27.5334 23.5471 26.3174 23.8271 24.9574 23.8271ZM24.9574 20.7551C25.9174 20.7551 26.7014 20.4351 27.3094 19.7951C27.9334 19.1391 28.2454 18.2671 28.2454 17.1791C28.2454 16.0911 27.9334 15.2271 27.3094 14.5871C26.7014 13.9311 25.9174 13.6031 24.9574 13.6031C23.9974 13.6031 23.2054 13.9311 22.5814 14.5871C21.9574 15.2271 21.6454 16.0911 21.6454 17.1791C21.6454 18.2671 21.9574 19.1391 22.5814 19.7951C23.2054 20.4351 23.9974 20.7551 24.9574 20.7551ZM40.7565 23.8271C39.3805 23.8271 38.1405 23.5471 37.0365 22.9871C35.9485 22.4111 35.0925 21.6191 34.4685 20.6111C33.8605 19.6031 33.5565 18.4591 33.5565 17.1791C33.5565 15.8991 33.8605 14.7551 34.4685 13.7471C35.0925 12.7391 35.9485 11.9551 37.0365 11.3951C38.1405 10.8191 39.3805 10.5311 40.7565 10.5311C42.1165 10.5311 43.3005 10.8191 44.3085 11.3951C45.3325 11.9551 46.0765 12.7631 46.5405 13.8191L43.6365 15.3791C42.9645 14.1951 41.9965 13.6031 40.7325 13.6031C39.7565 13.6031 38.9485 13.9231 38.3085 14.5631C37.6685 15.2031 37.3485 16.0751 37.3485 17.1791C37.3485 18.2831 37.6685 19.1551 38.3085 19.7951C38.9485 20.4351 39.7565 20.7551 40.7325 20.7551C42.0125 20.7551 42.9805 20.1631 43.6365 18.9791L46.5405 20.5631C46.0765 21.5871 45.3325 22.3871 44.3085 22.9631C43.3005 23.5391 42.1165 23.8271 40.7565 23.8271ZM146.204 23.9231C144.492 23.9231 142.94 23.5551 141.548 22.8191C140.172 22.0671 139.084 21.0351 138.284 19.7231C137.5 18.3951 137.108 16.8991 137.108 15.2351C137.108 13.5711 137.5 12.0831 138.284 10.7711C139.084 9.44307 140.172 8.41107 141.548 7.67507C142.94 6.92307 144.5 6.54707 146.228 6.54707C147.684 6.54707 148.996 6.80307 150.164 7.31507C151.348 7.82707 152.34 8.56307 153.14 9.52307L150.644 11.8271C149.508 10.5151 148.1 9.85907 146.42 9.85907C145.38 9.85907 144.452 10.0911 143.636 10.5551C142.82 11.0031 142.18 11.6351 141.716 12.4511C141.268 13.2671 141.044 14.1951 141.044 15.2351C141.044 16.2751 141.268 17.2031 141.716 18.0191C142.18 18.8351 142.82 19.4751 143.636 19.9391C144.452 20.3871 145.38 20.6111 146.42 20.6111C148.1 20.6111 149.508 19.9471 150.644 18.6191L153.14 20.9231C152.34 21.8991 151.348 22.6431 150.164 23.1551C148.98 23.6671 147.66 23.9231 146.204 23.9231ZM167.493 17.2271C167.493 17.2751 167.469 17.6111 167.421 18.2351H157.653C157.829 19.0351 158.245 19.6671 158.901 20.1311C159.557 20.5951 160.373 20.8271 161.349 20.8271C162.021 20.8271 162.613 20.7311 163.125 20.5391C163.653 20.3311 164.141 20.0111 164.589 19.5791L166.581 21.7391C165.365 23.1311 163.589 23.8271 161.253 23.8271C159.797 23.8271 158.509 23.5471 157.389 22.9871C156.269 22.4111 155.405 21.6191 154.797 20.6111C154.189 19.6031 153.885 18.4591 153.885 17.1791C153.885 15.9151 154.181 14.7791 154.773 13.7711C155.381 12.7471 156.205 11.9551 157.245 11.3951C158.301 10.8191 159.477 10.5311 160.773 10.5311C162.037 10.5311 163.181 10.8031 164.205 11.3471C165.229 11.8911 166.029 12.6751 166.605 13.6991C167.197 14.7071 167.493 15.8831 167.493 17.2271ZM160.797 13.3631C159.949 13.3631 159.237 13.6031 158.661 14.0831C158.085 14.5631 157.733 15.2191 157.605 16.0511H163.965C163.837 15.2351 163.485 14.5871 162.909 14.1071C162.333 13.6111 161.629 13.3631 160.797 13.3631ZM177.971 10.5311C179.171 10.5311 180.259 10.8111 181.234 11.3711C182.227 11.9151 183.003 12.6911 183.562 13.6991C184.123 14.6911 184.403 15.8511 184.403 17.1791C184.403 18.5071 184.123 19.6751 183.562 20.6831C183.003 21.6751 182.227 22.4511 181.234 23.0111C180.259 23.5551 179.171 23.8271 177.971 23.8271C176.323 23.8271 175.027 23.3071 174.083 22.2671V28.2911H170.339V10.7231H173.915V12.2111C174.843 11.0911 176.195 10.5311 177.971 10.5311ZM177.323 20.7551C178.283 20.7551 179.067 20.4351 179.675 19.7951C180.299 19.1391 180.611 18.2671 180.611 17.1791C180.611 16.0911 180.299 15.2271 179.675 14.5871C179.067 13.9311 178.283 13.6031 177.323 13.6031C176.363 13.6031 175.571 13.9311 174.947 14.5871C174.339 15.2271 174.035 16.0911 174.035 17.1791C174.035 18.2671 174.339 19.1391 174.947 19.7951C175.571 20.4351 176.363 20.7551 177.323 20.7551ZM196.891 16.8911C198.411 17.4031 199.171 18.4271 199.171 19.9631C199.171 21.1311 198.731 22.0351 197.851 22.6751C196.971 23.3151 195.659 23.6351 193.915 23.6351H187.027V10.7231H193.627C195.243 10.7231 196.507 11.0191 197.419 11.6111C198.331 12.1871 198.787 13.0031 198.787 14.0591C198.787 14.6991 198.619 15.2671 198.283 15.7631C197.963 16.2431 197.499 16.6191 196.891 16.8911ZM190.459 16.0271H193.291C194.603 16.0271 195.259 15.5631 195.259 14.6351C195.259 13.7231 194.603 13.2671 193.291 13.2671H190.459V16.0271ZM193.603 21.0911C194.979 21.0911 195.667 20.6191 195.667 19.6751C195.667 19.1791 195.507 18.8191 195.187 18.5951C194.867 18.3551 194.363 18.2351 193.675 18.2351H190.459V21.0911H193.603ZM201.956 10.7231H205.676V18.4031L211.964 10.7231H215.396V23.6351H211.676V15.9551L205.412 23.6351H201.956V10.7231ZM225.139 23.8271C223.763 23.8271 222.523 23.5471 221.419 22.9871C220.331 22.4111 219.475 21.6191 218.851 20.6111C218.243 19.6031 217.939 18.4591 217.939 17.1791C217.939 15.8991 218.243 14.7551 218.851 13.7471C219.475 12.7391 220.331 11.9551 221.419 11.3951C222.523 10.8191 223.763 10.5311 225.139 10.5311C226.499 10.5311 227.683 10.8191 228.691 11.3951C229.715 11.9551 230.459 12.7631 230.923 13.8191L228.019 15.3791C227.347 14.1951 226.379 13.6031 225.115 13.6031C224.139 13.6031 223.331 13.9231 222.691 14.5631C222.051 15.2031 221.731 16.0751 221.731 17.1791C221.731 18.2831 222.051 19.1551 222.691 19.7951C223.331 20.4351 224.139 20.7551 225.115 20.7551C226.395 20.7551 227.363 20.1631 228.019 18.9791L230.923 20.5631C230.459 21.5871 229.715 22.3871 228.691 22.9631C227.683 23.5391 226.499 23.8271 225.139 23.8271Z" fill="#BA8E41"/>
<path d="M60.9356 10.0031H52.9436L52.9676 23.6351H49.1036V6.83507H60.9596L60.9356 10.0031ZM68.0582 10.5311C70.0582 10.5311 71.5942 11.0111 72.6662 11.9711C73.7382 12.9151 74.2742 14.3471 74.2742 16.2671V23.6351H70.7702V22.0271C70.0662 23.2271 68.7542 23.8271 66.8342 23.8271C65.8422 23.8271 64.9782 23.6591 64.2422 23.3231C63.5222 22.9871 62.9702 22.5231 62.5862 21.9311C62.2022 21.3391 62.0102 20.6671 62.0102 19.9151C62.0102 18.7151 62.4582 17.7711 63.3542 17.0831C64.2662 16.3951 65.6662 16.0511 67.5542 16.0511H70.5302C70.5302 15.2351 70.2822 14.6111 69.7862 14.1791C69.2902 13.7311 68.5462 13.5071 67.5542 13.5071C66.8662 13.5071 66.1862 13.6191 65.5142 13.8431C64.8582 14.0511 64.2982 14.3391 63.8342 14.7071L62.4902 12.0911C63.1942 11.5951 64.0342 11.2111 65.0102 10.9391C66.0022 10.6671 67.0182 10.5311 68.0582 10.5311ZM67.7702 21.3071C68.4102 21.3071 68.9782 21.1631 69.4742 20.8751C69.9702 20.5711 70.3222 20.1311 70.5302 19.5551V18.2351H67.9622C66.4262 18.2351 65.6582 18.7391 65.6582 19.7471C65.6582 20.2271 65.8422 20.6111 66.2102 20.8991C66.5942 21.1711 67.1142 21.3071 67.7702 21.3071ZM85.1346 10.5311C86.3346 10.5311 87.4226 10.8111 88.3986 11.3711C89.3906 11.9151 90.1666 12.6911 90.7266 13.6991C91.2866 14.6911 91.5666 15.8511 91.5666 17.1791C91.5666 18.5071 91.2866 19.6751 90.7266 20.6831C90.1666 21.6751 89.3906 22.4511 88.3986 23.0111C87.4226 23.5551 86.3346 23.8271 85.1346 23.8271C83.4866 23.8271 82.1906 23.3071 81.2466 22.2671V28.2911H77.5026V10.7231H81.0786V12.2111C82.0066 11.0911 83.3586 10.5311 85.1346 10.5311ZM84.4866 20.7551C85.4466 20.7551 86.2306 20.4351 86.8386 19.7951C87.4626 19.1391 87.7746 18.2671 87.7746 17.1791C87.7746 16.0911 87.4626 15.2271 86.8386 14.5871C86.2306 13.9311 85.4466 13.6031 84.4866 13.6031C83.5266 13.6031 82.7346 13.9311 82.1106 14.5871C81.5026 15.2271 81.1986 16.0911 81.1986 17.1791C81.1986 18.2671 81.5026 19.1391 82.1106 19.7951C82.7346 20.4351 83.5266 20.7551 84.4866 20.7551ZM98.9957 10.5311C100.996 10.5311 102.532 11.0111 103.604 11.9711C104.676 12.9151 105.212 14.3471 105.212 16.2671V23.6351H101.708V22.0271C101.004 23.2271 99.6917 23.8271 97.7717 23.8271C96.7797 23.8271 95.9157 23.6591 95.1797 23.3231C94.4597 22.9871 93.9077 22.5231 93.5237 21.9311C93.1397 21.3391 92.9477 20.6671 92.9477 19.9151C92.9477 18.7151 93.3957 17.7711 94.2917 17.0831C95.2037 16.3951 96.6037 16.0511 98.4917 16.0511H101.468C101.468 15.2351 101.22 14.6111 100.724 14.1791C100.228 13.7311 99.4837 13.5071 98.4917 13.5071C97.8037 13.5071 97.1237 13.6191 96.4517 13.8431C95.7957 14.0511 95.2357 14.3391 94.7717 14.7071L93.4277 12.0911C94.1317 11.5951 94.9717 11.2111 95.9477 10.9391C96.9397 10.6671 97.9557 10.5311 98.9957 10.5311ZM98.7077 21.3071C99.3477 21.3071 99.9157 21.1631 100.412 20.8751C100.908 20.5711 101.26 20.1311 101.468 19.5551V18.2351H98.8997C97.3637 18.2351 96.5957 18.7391 96.5957 19.7471C96.5957 20.2271 96.7797 20.6111 97.1477 20.8991C97.5317 21.1711 98.0517 21.3071 98.7077 21.3071ZM108.464 10.7231H112.184V15.7631H117.8V10.7231H121.544V23.6351H117.8V18.8111H112.184V23.6351H108.464V10.7231ZM135.976 13.7951H131.608V23.6351H127.888V13.7951H123.52V10.7231H135.976V13.7951Z" fill="#FAFAFA"/>
</svg>
