<svg width="100" height="100" viewBox="0 0 100 100" fill="none" xmlns="http://www.w3.org/2000/svg">
<mask id="mask0" mask-type="alpha" maskUnits="userSpaceOnUse" x="0" y="0" width="100" height="100">
<g clip-path="url(#clip0)">
<path d="M79.6433 29.6022C80.4998 29.6022 81.1942 28.9078 81.1942 28.0512C81.1942 27.1946 80.4998 26.5002 79.6433 26.5002C78.7867 26.5002 78.0923 27.1946 78.0923 28.0512C78.0923 28.9078 78.7867 29.6022 79.6433 29.6022Z" fill="black"/>
<path d="M80.2372 7.08419C76.4592 6.7424 73.22 9.69611 73.22 13.4807C73.22 14.2897 73.8756 14.9455 74.6848 14.9455C75.494 14.9455 76.1497 14.2897 76.1497 13.4807C76.1497 11.4067 77.9256 9.81661 79.9731 10.0022C81.6624 10.1549 83.0192 11.5494 83.129 13.2459C83.251 15.1315 81.8807 16.761 80.0094 16.9553C78.9655 17.0637 78.1782 17.9406 78.1782 18.9953V23.6238C78.1782 24.4328 78.8338 25.0887 79.643 25.0887C80.4522 25.0887 81.1079 24.4328 81.1079 23.6238V19.7367C84.1354 19.0369 86.259 16.2461 86.0524 13.0565C85.8506 9.93341 83.3504 7.36603 80.2372 7.08419Z" fill="black"/>
<path d="M89.4333 42.4629C89.4333 41.6539 88.7776 40.998 87.9684 40.998C87.1592 40.998 86.5036 41.6539 86.5036 42.4629V67.6107H2.95122V17.3525C2.95122 15.1556 4.73833 13.3685 6.9352 13.3685H53.7069C54.5161 13.3685 55.1717 12.7127 55.1717 11.9037C55.1717 11.0947 54.5161 10.4388 53.7069 10.4388H6.9354C3.1231 10.4388 0.0217285 13.5404 0.0217285 17.3525V73.9297C0.0217285 77.742 3.12329 80.8433 6.9354 80.8433H35.7807L33.9104 88.0492H30.6782C25.9362 88.0492 22.0782 91.9072 22.0782 96.6492C22.0782 98.4968 23.5813 100 25.4288 100H64.0264C65.8741 100 67.3772 98.4968 67.3772 96.6492C67.3772 91.9072 63.5192 88.0492 58.7772 88.0492H55.545L53.6747 80.8433H82.5196C86.3319 80.8433 89.4333 77.742 89.4333 73.9297C89.4333 66.9881 89.4333 49.1613 89.4333 42.4629ZM58.777 90.9789C61.9038 90.9789 64.4473 93.5226 64.4473 96.6492C64.4473 96.8812 64.2584 97.0703 64.0262 97.0703H25.4286C25.1965 97.0703 25.0077 96.8814 25.0077 96.6492C25.0077 93.5226 27.5512 90.9789 30.678 90.9789H58.777ZM36.9372 88.0492L38.8075 80.8433H50.6475L52.5178 88.0492H36.9372ZM86.5036 73.9297C86.5036 76.1265 84.7165 77.9137 82.5196 77.9137H6.9354C4.73852 77.9137 2.95142 76.1263 2.95142 73.9297V70.5404H86.5038V73.9297H86.5036Z" fill="black"/>
<path d="M47.6812 46.8822C47.7384 46.7101 47.8998 46.5941 48.0832 46.5935C49.9377 46.5871 51.4334 45.081 51.4271 43.2259L51.4121 38.932C51.4058 37.0828 49.9076 35.5879 48.0562 35.5879C48.0517 35.5879 48.0468 35.5879 48.0425 35.5879C47.8605 35.5879 47.6992 35.4732 47.6406 35.3019C47.3814 34.542 47.0681 33.7929 46.7099 33.0759C46.6297 32.9154 46.6623 32.7207 46.7908 32.5912C48.0978 31.2754 48.0906 29.1527 46.7744 27.8455L43.7273 24.8197C42.4125 23.5142 40.2884 23.5203 38.9816 24.8361C38.8531 24.9658 38.6586 24.9996 38.4972 24.9207C37.7771 24.5672 37.0259 24.2593 36.2646 24.0054C36.0925 23.948 35.9763 23.7867 35.9757 23.6035C35.9726 22.7072 35.6207 21.8656 34.9847 21.2341C34.3486 20.6025 33.506 20.2515 32.6084 20.2595L28.3144 20.2746C26.4636 20.281 24.9642 21.7832 24.9705 23.6427C24.9711 23.8254 24.8562 23.9873 24.6847 24.0459C23.925 24.305 23.1759 24.6181 22.4584 24.9767C22.2978 25.057 22.1031 25.0242 21.9738 24.8957C20.659 23.59 18.5351 23.5963 17.2279 24.9123L14.2023 27.9591C12.8986 29.2722 12.906 31.4011 14.2189 32.7048C14.3484 32.8334 14.3824 33.0279 14.3033 33.189C13.95 33.9089 13.6422 34.6599 13.3881 35.4216C13.3308 35.5937 13.1697 35.7097 12.9863 35.7103C11.1318 35.7168 9.63572 37.2226 9.64236 39.0777L9.6572 43.372C9.66384 45.2183 11.1679 46.716 13.0138 46.7158H13.0258C13.2064 46.7181 13.3703 46.83 13.4289 47.0015C13.6881 47.7613 14.0013 48.5103 14.3595 49.2277C14.4398 49.3882 14.4072 49.583 14.2787 49.7125C12.9717 51.0283 12.9789 53.1509 14.2951 54.4582L17.3422 57.4839C18.657 58.7894 20.7808 58.7836 22.0881 57.4673C22.2166 57.3378 22.4111 57.3043 22.5722 57.3828C23.292 57.7361 24.0429 58.0439 24.8049 58.298C24.9769 58.3554 25.0931 58.5166 25.0937 58.7C25.1 60.5488 26.5982 62.0441 28.4492 62.0441H28.4613L32.7554 62.0291C34.6058 62.0226 36.1058 60.5121 36.0994 58.6607C36.0988 58.4781 36.2136 58.3162 36.3851 58.2576C37.1451 57.9984 37.8941 57.6851 38.6113 57.3267C38.7715 57.2466 38.9666 57.2791 39.0959 57.4078C40.4107 58.7132 42.5347 58.7074 43.8416 57.3912L46.8673 54.3441C48.1742 53.0283 48.1672 50.9056 46.8509 49.5986C46.7215 49.4699 46.6875 49.2752 46.7662 49.1144C47.1193 48.3949 47.4273 47.6437 47.6812 46.8822ZM44.9017 45.9556C44.6892 46.5929 44.4316 47.2214 44.1357 47.8242C43.5029 49.1142 43.7642 50.6628 44.7859 51.6777C44.9541 51.8447 44.9535 52.1134 44.7882 52.2802L41.7625 55.3273C41.5968 55.4941 41.3271 55.4955 41.1599 55.3294C40.1381 54.3142 38.5873 54.064 37.3015 54.7062C36.7013 55.0062 36.0744 55.2681 35.4382 55.4853C34.0758 55.9503 33.1638 57.2306 33.1691 58.672C33.1699 58.907 32.9795 59.099 32.7445 59.0996L28.4504 59.1146C28.4498 59.1146 28.4494 59.1146 28.4488 59.1146C28.2142 59.1146 28.0238 58.9261 28.0228 58.6892C28.0177 57.2486 27.0968 55.9746 25.7314 55.5193C25.0935 55.3066 24.465 55.049 23.8629 54.7533C22.5656 54.1168 21.0185 54.3869 20.009 55.4035C19.8394 55.5746 19.5697 55.5673 19.4066 55.4056L16.3595 52.3798C16.1922 52.2136 16.191 51.9449 16.3574 51.7773C17.372 50.7552 17.6226 49.2048 16.9804 47.9191C16.6804 47.3187 16.4183 46.6919 16.2013 46.0556C15.7375 44.697 14.4631 43.7865 13.0265 43.7865C13.0222 43.7865 13.0197 43.7863 13.0131 43.7865C12.7789 43.7865 12.5877 43.5963 12.5869 43.3621L12.572 39.0677C12.5711 38.8347 12.7578 38.6412 12.9974 38.6404C14.4381 38.6353 15.7119 37.7144 16.1672 36.349C16.3799 35.7115 16.6377 35.0828 16.9332 34.4804C17.5666 33.1904 17.3052 31.6416 16.2834 30.6265C16.1166 30.4609 16.1158 30.1906 16.2812 30.024L19.3068 26.9771C19.4724 26.8103 19.7416 26.8088 19.9093 26.975C20.9312 27.9898 22.482 28.2402 23.7674 27.598C24.3679 27.298 24.9949 27.0359 25.631 26.8189C26.9933 26.3539 27.9054 25.0734 27.9002 23.6322C27.8992 23.3961 28.089 23.2054 28.3248 23.2047L32.6187 23.1896H32.6203C32.8543 23.1896 33.0455 23.3798 33.0463 23.615C33.0513 25.0558 33.9722 26.3298 35.3379 26.7851C35.9752 26.9976 36.6037 27.2554 37.2066 27.5511C38.4965 28.1841 40.0453 27.923 41.0603 26.9009C41.2256 26.7343 41.4953 26.7326 41.6627 26.8988L44.7097 29.9246C44.8785 30.092 44.8769 30.3611 44.7121 30.5269C43.697 31.5488 43.4466 33.0994 44.089 34.3855C44.3886 34.9855 44.6507 35.6123 44.8679 36.2486C45.3314 37.6074 46.606 38.5181 48.0431 38.5179C48.0474 38.5179 48.0527 38.5181 48.0564 38.5179C48.2904 38.5179 48.4812 38.706 48.4822 38.9423L48.4972 43.2363C48.498 43.4712 48.3076 43.6632 48.0718 43.6638C46.6312 43.6689 45.3572 44.5898 44.9017 45.9556Z" fill="black"/>
<path d="M30.5358 31.0117C30.5236 31.0117 30.5113 31.0117 30.4992 31.0117C24.8949 31.0313 20.375 35.5824 20.3943 41.1875C20.4141 46.7742 24.9404 51.2924 30.5338 51.2924H30.5703C33.2789 51.2828 35.8217 50.2191 37.7303 48.2973H37.7301C39.6387 46.3754 40.6846 43.8252 40.6752 41.1166C40.6555 35.5299 36.1291 31.0117 30.5358 31.0117ZM30.56 48.3629C30.5514 48.3629 30.5428 48.3629 30.534 48.3629C26.5613 48.3629 23.3383 45.1549 23.324 41.1773C23.3102 37.1926 26.5234 33.9553 30.5096 33.9414H30.5356C34.5082 33.9414 37.7313 37.1494 37.7455 41.127C37.7594 45.1121 34.5455 48.3488 30.56 48.3629Z" fill="black"/>
<path d="M94.1251 0H64.9012C61.6737 0 59.0477 2.62578 59.0477 5.85332V31.1924C59.0477 33.8504 60.8665 36.1664 63.3796 36.8443V45.7754C63.3796 46.6998 63.9438 47.493 64.8169 47.7963C65.704 48.1045 66.6341 47.8146 67.1973 47.1014L74.8561 37.4051C75.0366 37.177 75.3069 37.0459 75.5977 37.0459H94.1251C97.3526 37.0459 99.9786 34.4201 99.9786 31.1924V5.85332C99.9786 2.62578 97.3526 0 94.1251 0V0ZM97.0489 31.1926C97.0489 32.8047 95.7372 34.1164 94.1251 34.1164H75.5977C74.405 34.1164 73.2968 34.6533 72.5573 35.5893L66.3094 43.4992V36.1826C66.3094 35.1348 65.5255 34.2336 64.486 34.0863C63.0561 33.8838 61.9776 32.6398 61.9776 31.1928V5.85332C61.9776 4.24121 63.2893 2.92969 64.9014 2.92969H94.1251C95.7372 2.92969 97.0489 4.24121 97.0489 5.85332V31.1926Z" fill="black"/>
</g>
</mask>
<g mask="url(#mask0)">
<rect width="113.037" height="113.037" fill="#B38A43"/>
</g>
<defs>
<clipPath id="clip0">
<rect width="100" height="100" fill="white"/>
</clipPath>
</defs>
</svg>
