<svg width="102" height="102" viewBox="0 0 102 102" fill="none" xmlns="http://www.w3.org/2000/svg">
<mask id="mask0" mask-type="alpha" maskUnits="userSpaceOnUse" x="0" y="0" width="102" height="102">
<g clip-path="url(#clip0)">
<path d="M47.1794 100.914C46.6881 100.682 46.1315 100.42 45.4572 100.145C45.4412 100.139 45.4253 100.132 45.4097 100.125C23.5048 90.3106 9.35095 68.4591 9.35095 44.456V22.9153C9.35095 18.2014 13.0397 14.3435 17.7488 14.1324C18.4987 13.9798 32.1922 14.7396 44.5742 4.06683L47.5633 1.49013C49.534 -0.487312 52.2744 -0.498468 54.4104 1.46742L57.426 4.06683C69.7714 14.7079 83.4703 13.9734 84.2514 14.1324C88.9605 14.3435 92.6493 18.2014 92.6493 22.9153V44.456C92.6493 68.4591 78.4954 90.3104 56.5905 100.125C56.5748 100.132 56.559 100.139 56.5431 100.145C55.8621 100.422 55.3029 100.686 54.8097 100.918C51.8013 102.336 50.302 102.387 47.1794 100.914ZM46.608 97.3883C47.3457 97.6893 47.934 97.9668 48.4538 98.212C50.7094 99.2757 51.2803 99.2786 53.5361 98.216C54.0578 97.9702 54.6483 97.6919 55.392 97.3885C76.2109 88.0497 89.6616 67.2756 89.6616 44.4564V22.9153C89.6616 19.8033 87.2263 17.2563 84.1175 17.1171C83.3505 16.9603 68.708 17.7356 55.4755 6.32975L52.4404 3.71341C52.4264 3.70146 52.4127 3.68911 52.3993 3.67656C51.7296 3.0548 50.7098 2.54081 49.6549 3.62417C49.6246 3.65524 49.5929 3.68513 49.5601 3.71341L46.525 6.32956C33.2883 17.7388 18.6626 16.9575 17.8827 17.1171C14.7739 17.2565 12.3386 19.8033 12.3386 22.9153V44.456C12.3384 67.2754 25.7891 88.0495 46.608 97.3883Z" fill="black"/>
<path d="M48.9457 91.8878C30.3375 83.4893 18.3138 64.8711 18.3138 44.456V36.6725C18.3138 35.8475 18.9826 35.1788 19.8076 35.1788C20.6325 35.1788 21.3013 35.8475 21.3013 36.6725V44.456C21.3013 63.6909 32.6261 81.2336 50.1534 89.1549L50.5783 89.3306C50.8469 89.4416 51.1535 89.4418 51.4224 89.3306L51.8471 89.1551C69.3742 81.2339 80.6992 63.691 80.6992 44.4562V26.2701C80.6992 26.0994 80.5669 25.9585 80.398 25.9496C74.8412 25.6555 60.903 23.9444 51.0005 14.4463C41.0981 23.9444 27.1597 25.6557 21.6027 25.9496C21.434 25.9583 21.3015 26.0992 21.3015 26.2701V29.6877C21.3015 30.5127 20.6327 31.1814 19.8078 31.1814C18.9828 31.1814 18.314 30.5127 18.314 29.6877V26.2701C18.314 24.5104 19.6894 23.0591 21.445 22.9663C25.5435 22.7495 39.65 21.3275 49.0941 12.1337C50.1653 11.091 51.7718 11.0289 52.9066 12.1339C62.3507 21.3275 76.4572 22.7495 80.5555 22.9663C82.3113 23.0591 83.6867 24.5104 83.6867 26.2701V44.4562C83.6867 64.8713 71.6628 83.4893 53.0548 91.888C51.3869 92.6376 50.3661 92.5265 48.9457 91.8878Z" fill="black"/>
<path d="M56.166 73.8034C54.7338 73.8034 53.3749 72.9484 52.8054 71.5413C52.8044 71.5389 52.8034 71.5367 52.8026 71.5343C52.6992 71.2863 52.4531 71.1311 52.1838 71.1464C51.2887 71.1994 50.3825 71.1925 49.4904 71.1255C49.2226 71.1044 48.9726 71.2598 48.8666 71.5098C48.0861 73.3524 45.9632 74.212 44.1204 73.4315L39.6727 71.5473C37.8343 70.7685 36.9723 68.6393 37.751 66.8009C37.8568 66.5509 37.7934 66.2634 37.5932 66.0855C36.9236 65.4906 36.2881 64.8447 35.7042 64.1652C35.5279 63.9604 35.2408 63.8913 34.9892 63.9931C34.9862 63.9943 34.9833 63.9955 34.9803 63.9967C33.1315 64.7402 31.0216 63.8441 30.2733 61.9961L28.4606 57.5187C27.7096 55.6636 28.6029 53.5548 30.458 52.8036C30.4596 52.803 30.461 52.8024 30.4626 52.8018C30.712 52.6988 30.8686 52.4504 30.8527 52.182C30.7995 51.2867 30.8066 50.3805 30.8738 49.4884C30.8939 49.2214 30.7393 48.9708 30.4893 48.8648C28.6511 48.0861 27.7891 45.9568 28.5676 44.1186L30.4518 39.6709C31.2306 37.8325 33.3602 36.9705 35.1982 37.7492C35.4484 37.8552 35.7357 37.7916 35.9134 37.5914C36.5083 36.9218 37.1543 36.2863 37.8337 35.7022C38.0385 35.5261 38.1076 35.2388 38.0058 34.9872C38.0044 34.9838 38.003 34.9803 38.0016 34.9769C37.2593 33.1285 38.1554 31.0194 40.0028 30.2713L44.4802 28.4586C46.3312 27.7092 48.4461 28.6055 49.1951 30.456C49.1961 30.4584 49.1971 30.4606 49.1979 30.463C49.3013 30.7112 49.5503 30.867 49.8167 30.8509C50.7116 30.7977 51.6178 30.8048 52.5101 30.8718C52.7753 30.8905 53.0279 30.7375 53.1339 30.4875C53.9128 28.6493 56.0419 27.7877 57.8801 28.5658L62.3278 30.45C64.1662 31.2288 65.0282 33.358 64.2495 35.1964C64.1437 35.4464 64.2071 35.7337 64.4073 35.9116C65.0766 36.5063 65.7122 37.1523 66.2965 37.8321C66.4726 38.0369 66.7602 38.1062 67.0117 38.004L67.0206 38.0004C68.8692 37.2569 70.9793 38.153 71.7276 40.001L73.5403 44.4784C74.2895 46.3292 73.3934 48.4443 71.5429 49.1935C71.5405 49.1945 71.5381 49.1955 71.5355 49.1965C71.2877 49.2999 71.1323 49.5477 71.148 49.8151C71.2012 50.71 71.1941 51.6162 71.1271 52.5085C71.107 52.7757 71.2614 53.0263 71.5114 53.1323C73.3496 53.911 74.2116 56.0403 73.4331 57.8785L71.5489 62.3262C70.7701 64.1646 68.6405 65.0266 66.8025 64.2479C66.5527 64.1423 66.265 64.2055 66.0873 64.4057C65.4926 65.075 64.8465 65.7106 64.167 66.2947C63.9622 66.4708 63.8931 66.7582 63.9951 67.0099C63.9963 67.0128 63.9975 67.0156 63.9985 67.0184C64.742 68.8672 63.8461 70.9773 61.9979 71.7256L57.5205 73.5383C57.0766 73.7183 56.6176 73.8034 56.166 73.8034ZM55.5769 70.4265C55.71 70.7458 56.0769 70.9 56.3991 70.7695L60.8763 68.9568C61.2001 68.8257 61.357 68.4566 61.2255 68.1321C61.2246 68.1295 61.2234 68.1269 61.2224 68.1243C60.643 66.6851 61.0431 65.0402 62.2188 64.0293C62.7974 63.5321 63.3472 62.9912 63.8532 62.4216C64.8832 61.2624 66.5363 60.8911 67.9673 61.4971C68.289 61.6333 68.6608 61.4833 68.7975 61.161L70.6817 56.7132C70.8177 56.3917 70.6669 56.0194 70.3454 55.8831C68.9144 55.2769 68.0311 53.8305 68.1474 52.2846C68.2046 51.5252 68.2106 50.754 68.1653 49.9922C68.0733 48.4419 68.9793 47.0081 70.4205 46.4248C70.4229 46.4238 70.4253 46.4228 70.4277 46.4218C70.747 46.2885 70.9008 45.9212 70.7705 45.5996L68.9578 41.1224C68.8273 40.8 68.4592 40.6411 68.1331 40.7731C68.1305 40.7741 68.1279 40.7753 68.1251 40.7763C66.6857 41.3557 65.041 40.9556 64.0303 39.7798C63.5331 39.2013 62.9922 38.6515 62.4227 38.1454C61.2636 37.1159 60.8919 35.4626 61.4981 34.0314C61.6345 33.7092 61.4843 33.3377 61.162 33.2012L56.7142 31.317C56.3931 31.181 56.0204 31.3316 55.8841 31.6533C55.2777 33.0843 53.8293 33.9662 52.2856 33.8513C51.5262 33.7941 50.7548 33.7881 49.9932 33.8334C48.4441 33.9262 47.0093 33.0194 46.4258 31.5784C46.4248 31.576 46.4238 31.5736 46.4228 31.571C46.2891 31.2505 45.9226 31.0983 45.6008 31.228L41.1234 33.0407C40.7998 33.1718 40.6431 33.5417 40.7741 33.8654C40.7753 33.8686 40.7767 33.8718 40.7779 33.8748C41.3563 35.3136 40.9562 36.9573 39.7806 37.9677C39.2023 38.4648 38.6525 39.0059 38.1463 39.5756C37.1165 40.7347 35.4634 41.1062 34.0324 40.5002C33.7104 40.3637 33.3387 40.514 33.2022 40.8363L31.318 45.2841C31.182 45.6056 31.3328 45.9781 31.6543 46.1142C33.0853 46.7204 33.9686 48.1665 33.8525 49.7127C33.7953 50.4721 33.7893 51.2433 33.8346 52.0051C33.9266 53.5554 33.0206 54.989 31.5796 55.5725C31.578 55.5731 31.5762 55.5737 31.5746 55.5745C31.2547 55.7064 31.0979 56.0731 31.2294 56.3977L33.0421 60.8749C33.1734 61.1988 33.5425 61.3554 33.8668 61.2241C33.87 61.223 33.8732 61.2216 33.8764 61.2204C35.3156 60.642 36.9589 61.0423 37.9695 62.2177C38.4666 62.796 39.0075 63.3456 39.5772 63.8518C40.7365 64.8816 41.108 66.5349 40.5018 67.9659C40.3653 68.288 40.5156 68.6596 40.8379 68.7961L45.2857 70.6803C45.6076 70.8161 45.9791 70.6665 46.1156 70.3442C46.722 68.9128 48.1689 68.0305 49.7143 68.146C50.4737 68.2032 51.2449 68.209 52.0067 68.1639C53.5542 68.0731 54.9906 68.9779 55.5741 70.4189C55.5751 70.4217 55.5761 70.4241 55.5769 70.4265ZM39.5874 55.6195C37.0338 49.3121 40.0711 42.1402 46.3794 39.5862C52.9669 36.9191 60.3737 40.3657 62.65 47.0137C62.9171 47.7942 62.5011 48.6437 61.7206 48.9108C60.9401 49.1782 60.0908 48.762 59.8234 47.9815C58.1012 42.9512 52.495 40.3329 47.5006 42.3553C42.7237 44.2894 40.4221 49.7205 42.3567 54.4983C44.2906 59.2752 49.7221 61.5768 54.4997 59.6422C57.0244 58.62 58.9451 56.5875 59.8274 54.0063C60.0942 53.2257 60.9433 52.809 61.724 53.0759C62.5045 53.3427 62.9211 54.1919 62.6543 54.9725C61.5264 58.2733 59.0537 61.0215 55.6209 62.4113C49.3133 64.9653 42.1414 61.9278 39.5874 55.6195Z" fill="black"/>
</g>
</mask>
<g mask="url(#mask0)">
<rect x="-9" y="-2" width="113.037" height="113.037" fill="#B38A43"/>
</g>
<defs>
<clipPath id="clip0">
<rect width="102" height="102" fill="white"/>
</clipPath>
</defs>
</svg>
